STARTFONT 2.1
FONT -Wuncon-Siji-Medium-R-Normal--10-100-75-75-C-80-ISO10646-1
SIZE 10 75 75
FONTBOUNDINGBOX 13 12 -1 -2
STARTPROPERTIES 23
FONTNAME_REGISTRY ""
FOUNDRY "Wuncon"
FAMILY_NAME "Siji"
WEIGHT_NAME "Medium"
SLANT "R"
SETWIDTH_NAME "Normal"
ADD_STYLE_NAME ""
PIXEL_SIZE 10
POINT_SIZE 100
RESOLUTION_X 75
RESOLUTION_Y 75
SPACING "C"
AVERAGE_WIDTH 80
CHARSET_REGISTRY "ISO10646"
CHARSET_ENCODING "1"
COPYRIGHT "GPLv2"
WEIGHT 10
_GBDFED_INFO "Edited with gbdfed 1.6."
X_HEIGHT 3
QUAD_WIDTH 8
DEFAULT_CHAR 0
FONT_DESCENT 2
FONT_ASCENT 8
COMMENT """""""""""""""""""""""""""""Procon - An Iconic Font based on Stlarch font, Sm4tik's xbm pack, FontAwesome and Lokaltog Symbol Font"""""""""""""""""""""""""""""
COMMENT """""""""Siji font - an iconic bitmap font based on Stlarch by Stark"""""""""
ENDPROPERTIES
CHARS 631
STARTCHAR U+E000
ENCODING 57344
SWIDTH 1248 0
DWIDTH 13 0
BBX 13 12 -1 -2
BITMAP
0000
0000
1FE0
1FE0
1FE0
1FE0
1FE0
1FE0
1FE0
1FE0
0000
0000
ENDCHAR
STARTCHAR U+E001
ENCODING 57345
SWIDTH 1248 0
DWIDTH 13 0
BBX 13 12 -1 -2
BITMAP
0000
0000
1FE0
1FE0
1860
1860
1860
1860
1FE0
1FE0
0000
0000
ENDCHAR
STARTCHAR U+E002
ENCODING 57346
SWIDTH 1248 0
DWIDTH 13 0
BBX 13 12 -1 -2
BITMAP
0000
0000
1EE0
1EE0
1E00
1EE0
1EE0
1E00
1EE0
1EE0
0000
0000
ENDCHAR
STARTCHAR U+E003
ENCODING 57347
SWIDTH 1248 0
DWIDTH 13 0
BBX 13 12 -1 -2
BITMAP
0000
0000
1FE0
1FE0
1FE0
1FE0
0000
1B60
1B60
1B60
0000
0000
ENDCHAR
STARTCHAR U+E004
ENCODING 57348
SWIDTH 1248 0
DWIDTH 13 0
BBX 13 12 -1 -2
BITMAP
0000
0000
1FE0
1FE0
1FE0
1FE0
0000
1FE0
0000
1FE0
0000
0000
ENDCHAR
STARTCHAR U+E005
ENCODING 57349
SWIDTH 1248 0
DWIDTH 13 0
BBX 13 12 -1 -2
BITMAP
0000
0000
1B60
1B60
0000
1B60
1B60
0000
1B60
1B60
0000
0000
ENDCHAR
STARTCHAR U+E006
ENCODING 57350
SWIDTH 1248 0
DWIDTH 13 0
BBX 13 12 -1 -2
BITMAP
0000
0000
1EE0
1EE0
1EE0
1EE0
00E0
1FE0
1FE0
1FE0
0000
0000
ENDCHAR
STARTCHAR U+E007
ENCODING 57351
SWIDTH 1248 0
DWIDTH 13 0
BBX 13 12 -1 -2
BITMAP
0000
0000
1EE0
1EE0
1EE0
1EE0
1E00
1EA0
1E80
1EA0
0000
0000
ENDCHAR
STARTCHAR U+E008
ENCODING 57352
SWIDTH 1248 0
DWIDTH 13 0
BBX 13 12 -1 -2
BITMAP
0000
0000
1EE0
1EE0
1EE0
1EE0
1E00
1EA0
1E20
1EA0
0000
0000
ENDCHAR
STARTCHAR U+E009
ENCODING 57353
SWIDTH 1248 0
DWIDTH 13 0
BBX 13 12 -1 -2
BITMAP
0000
0000
1EE0
1EE0
1E00
1EE0
00E0
1E00
1EE0
1EE0
0000
0000
ENDCHAR
STARTCHAR U+E00A
ENCODING 57354
SWIDTH 1248 0
DWIDTH 13 0
BBX 13 12 -1 -2
BITMAP
0000
0000
1EE0
1EE0
1EE0
1EE0
0000
1B60
1B60
1B60
0000
0000
ENDCHAR
STARTCHAR U+E00B
ENCODING 57355
SWIDTH 1248 0
DWIDTH 13 0
BBX 13 12 -1 -2
BITMAP
0000
0000
0300
0280
1240
0A80
0700
0A80
1240
0280
0300
0000
ENDCHAR
STARTCHAR U+E00C
ENCODING 57356
SWIDTH 1248 0
DWIDTH 13 0
BBX 13 12 -1 -2
BITMAP
0000
0000
0100
0140
0540
0540
0580
0300
0100
0100
0000
0000
ENDCHAR
STARTCHAR U+E00D
ENCODING 57357
SWIDTH 1248 0
DWIDTH 13 0
BBX 13 12 -1 -2
BITMAP
0000
0000
0300
0300
0B40
1320
1320
1020
0840
0780
0000
0000
ENDCHAR
STARTCHAR U+E00E
ENCODING 57358
SWIDTH 1248 0
DWIDTH 13 0
BBX 13 12 -1 -2
BITMAP
0000
0000
0300
0300
0780
0780
0FC0
0CC0
1CE0
1860
1020
0000
ENDCHAR
STARTCHAR U+E00F
ENCODING 57359
SWIDTH 1248 0
DWIDTH 13 0
BBX 13 12 -1 -2
BITMAP
0000
0000
0780
0DC0
1F80
1F00
1E00
1FE0
0FC0
0780
0000
0000
ENDCHAR
STARTCHAR U+E010
ENCODING 57360
SWIDTH 1248 0
DWIDTH 13 0
BBX 13 12 -1 -2
BITMAP
0000
0000
1FE0
1FE0
1FE0
1CE0
1CE0
1FE0
1FE0
1FE0
0000
0000
ENDCHAR
STARTCHAR U+E011
ENCODING 57361
SWIDTH 1248 0
DWIDTH 13 0
BBX 13 12 -1 -2
BITMAP
0000
0000
1FE0
1F20
1F20
1FE0
1FE0
13E0
13E0
1FE0
0000
0000
ENDCHAR
STARTCHAR U+E012
ENCODING 57362
SWIDTH 1248 0
DWIDTH 13 0
BBX 13 12 -1 -2
BITMAP
0000
0000
1FE0
1F20
1F20
1CE0
1CE0
13E0
13E0
1FE0
0000
0000
ENDCHAR
STARTCHAR U+E013
ENCODING 57363
SWIDTH 1248 0
DWIDTH 13 0
BBX 13 12 -1 -2
BITMAP
0000
0000
1FE0
1320
1320
1FE0
1FE0
1320
1320
1FE0
0000
0000
ENDCHAR
STARTCHAR U+E014
ENCODING 57364
SWIDTH 1248 0
DWIDTH 13 0
BBX 13 12 -1 -2
BITMAP
0000
0000
1FE0
1320
1320
1CE0
1CE0
1320
1320
1FE0
0000
0000
ENDCHAR
STARTCHAR U+E015
ENCODING 57365
SWIDTH 1248 0
DWIDTH 13 0
BBX 13 12 -1 -2
BITMAP
0000
0000
0780
0DC0
1DE0
1DE0
1C20
1FE0
0FC0
0780
0000
0000
ENDCHAR
STARTCHAR U+E016
ENCODING 57366
SWIDTH 1248 0
DWIDTH 13 0
BBX 13 12 -1 -2
BITMAP
0000
0000
0780
0840
1220
1220
13A0
1020
0840
0780
0000
0000
ENDCHAR
STARTCHAR U+E017
ENCODING 57367
SWIDTH 1248 0
DWIDTH 13 0
BBX 13 12 -1 -2
BITMAP
0000
0000
1FE0
1DE0
1DE0
1DE0
1C20
1FE0
1FE0
1FE0
0000
0000
ENDCHAR
STARTCHAR U+E018
ENCODING 57368
SWIDTH 1248 0
DWIDTH 13 0
BBX 13 12 -1 -2
BITMAP
0000
0000
1FE0
1020
1220
1220
13A0
1020
1020
1FE0
0000
0000
ENDCHAR
STARTCHAR U+E019
ENCODING 57369
SWIDTH 1248 0
DWIDTH 13 0
BBX 13 12 -1 -2
BITMAP
0000
0000
0300
0580
0DC0
1DE0
1C20
0FC0
0780
0300
0000
0000
ENDCHAR
STARTCHAR U+E01A
ENCODING 57370
SWIDTH 1248 0
DWIDTH 13 0
BBX 13 12 -1 -2
BITMAP
0000
0000
0300
0480
0A40
1220
13A0
0840
0480
0300
0000
0000
ENDCHAR
STARTCHAR U+E01B
ENCODING 57371
SWIDTH 1248 0
DWIDTH 13 0
BBX 13 12 -1 -2
BITMAP
0000
0000
0260
00E0
09C0
0280
0D00
1200
1200
0C00
0000
0000
ENDCHAR
STARTCHAR U+E01C
ENCODING 57372
SWIDTH 1248 0
DWIDTH 13 0
BBX 13 12 -1 -2
BITMAP
0000
0000
0120
0380
03A0
0380
02A0
0440
0440
0380
0000
0000
ENDCHAR
STARTCHAR U+E01D
ENCODING 57373
SWIDTH 1248 0
DWIDTH 13 0
BBX 13 12 -1 -2
BITMAP
0000
0000
0300
03C0
0300
03C0
0300
0780
0780
0300
0000
0000
ENDCHAR
STARTCHAR U+E01E
ENCODING 57374
SWIDTH 1248 0
DWIDTH 13 0
BBX 13 12 -1 -2
BITMAP
0000
0000
07C0
0FE0
0820
0920
08A0
0920
0820
07C0
0000
0000
ENDCHAR
STARTCHAR U+E01F
ENCODING 57375
SWIDTH 1248 0
DWIDTH 13 0
BBX 13 12 -1 -2
BITMAP
0000
0000
07C0
0FE0
0820
0BA0
0820
0BA0
0820
07C0
0000
0000
ENDCHAR
STARTCHAR U+E020
ENCODING 57376
SWIDTH 1248 0
DWIDTH 13 0
BBX 13 12 -1 -2
BITMAP
0000
0000
0AA0
0000
0FE0
0FE0
0FE0
0FE0
0000
0AA0
0000
0000
ENDCHAR
STARTCHAR U+E021
ENCODING 57377
SWIDTH 1248 0
DWIDTH 13 0
BBX 13 12 -1 -2
BITMAP
0000
0000
1B60
0000
1FE0
1FE0
1FE0
1FE0
0000
1B60
0000
0000
ENDCHAR
STARTCHAR U+E022
ENCODING 57378
SWIDTH 1248 0
DWIDTH 13 0
BBX 13 12 -1 -2
BITMAP
0000
0000
1860
17A0
0FC0
0FC0
0FC0
0FC0
17A0
1860
0000
0000
ENDCHAR
STARTCHAR U+E023
ENCODING 57379
SWIDTH 1248 0
DWIDTH 13 0
BBX 13 12 -1 -2
BITMAP
0000
0000
0000
0C60
0BA0
07C0
07C0
07C0
0BA0
0C60
0000
0000
ENDCHAR
STARTCHAR U+E024
ENCODING 57380
SWIDTH 1248 0
DWIDTH 13 0
BBX 13 12 -1 -2
BITMAP
0000
0000
1020
0FC0
0FC0
0FC0
0FC0
0FC0
0FC0
1020
0000
0000
ENDCHAR
STARTCHAR U+E025
ENCODING 57381
SWIDTH 1248 0
DWIDTH 13 0
BBX 13 12 -1 -2
BITMAP
0000
0000
0000
0820
07C0
07C0
07C0
07C0
07C0
0820
0000
0000
ENDCHAR
STARTCHAR U+E026
ENCODING 57382
SWIDTH 1248 0
DWIDTH 13 0
BBX 13 12 -1 -2
BITMAP
0000
0000
1B60
1860
0780
17A0
17A0
0780
1860
1B60
0000
0000
ENDCHAR
STARTCHAR U+E027
ENCODING 57383
SWIDTH 1248 0
DWIDTH 13 0
BBX 13 12 -1 -2
BITMAP
0000
0000
0800
0BE0
0F80
0CC0
0CC0
07C0
1F40
0040
0000
0000
ENDCHAR
STARTCHAR U+E028
ENCODING 57384
SWIDTH 1248 0
DWIDTH 13 0
BBX 13 12 -1 -2
BITMAP
0000
0000
0000
1540
0000
1FC0
1FC0
1FC0
0000
1540
0000
0000
ENDCHAR
STARTCHAR U+E029
ENCODING 57385
SWIDTH 1248 0
DWIDTH 13 0
BBX 13 12 -1 -2
BITMAP
0000
0000
0F80
1040
1040
1040
1FC0
1FC0
1FC0
1FC0
0000
0000
ENDCHAR
STARTCHAR U+E02A
ENCODING 57386
SWIDTH 1248 0
DWIDTH 13 0
BBX 13 12 -1 -2
BITMAP
0000
0000
0000
1FC0
1740
1040
1FC0
1740
1040
1FC0
0000
0000
ENDCHAR
STARTCHAR U+E02B
ENCODING 57387
SWIDTH 1248 0
DWIDTH 13 0
BBX 13 12 -1 -2
BITMAP
0000
0000
1FE0
17A0
1020
1FE0
17A0
1020
1020
1FE0
0000
0000
ENDCHAR
STARTCHAR U+E02C
ENCODING 57388
SWIDTH 1248 0
DWIDTH 13 0
BBX 13 12 -1 -2
BITMAP
0000
0000
0F80
18C0
1740
1740
1740
18C0
0F80
1040
0000
0000
ENDCHAR
STARTCHAR U+E02D
ENCODING 57389
SWIDTH 1248 0
DWIDTH 13 0
BBX 13 12 -1 -2
BITMAP
0000
0000
1F00
1080
1E40
1120
1CA0
12A0
1AA0
1FE0
0000
0000
ENDCHAR
STARTCHAR U+E02E
ENCODING 57390
SWIDTH 1248 0
DWIDTH 13 0
BBX 13 12 -1 -2
BITMAP
0000
0000
0380
0380
0000
0780
0380
0380
0380
07C0
0000
0000
ENDCHAR
STARTCHAR U+E02F
ENCODING 57391
SWIDTH 1248 0
DWIDTH 13 0
BBX 13 12 -1 -2
BITMAP
0000
0000
0780
0780
0000
0F80
0780
0780
0780
0FC0
0000
0000
ENDCHAR
STARTCHAR U+E030
ENCODING 57392
SWIDTH 1248 0
DWIDTH 13 0
BBX 13 12 -1 -2
BITMAP
0000
0000
0300
0FC0
0840
0840
0840
0840
0840
0FC0
0000
0000
ENDCHAR
STARTCHAR U+E031
ENCODING 57393
SWIDTH 1248 0
DWIDTH 13 0
BBX 13 12 -1 -2
BITMAP
0000
0000
0300
0FC0
0840
0840
0A40
0B40
0840
0FC0
0000
0000
ENDCHAR
STARTCHAR U+E032
ENCODING 57394
SWIDTH 1248 0
DWIDTH 13 0
BBX 13 12 -1 -2
BITMAP
0000
0000
0300
0FC0
0840
0A40
0B40
0B40
0840
0FC0
0000
0000
ENDCHAR
STARTCHAR U+E033
ENCODING 57395
SWIDTH 1248 0
DWIDTH 13 0
BBX 13 12 -1 -2
BITMAP
0000
0000
0300
0FC0
0840
0B40
0B40
0B40
0840
0FC0
0000
0000
ENDCHAR
STARTCHAR U+E034
ENCODING 57396
SWIDTH 1248 0
DWIDTH 13 0
BBX 13 12 -1 -2
BITMAP
0000
0000
0700
1FC0
1040
1040
1040
1040
1040
1FC0
0000
0000
ENDCHAR
STARTCHAR U+E035
ENCODING 57397
SWIDTH 1248 0
DWIDTH 13 0
BBX 13 12 -1 -2
BITMAP
0000
0000
0700
1FC0
1040
1040
1440
1640
1040
1FC0
0000
0000
ENDCHAR
STARTCHAR U+E036
ENCODING 57398
SWIDTH 1248 0
DWIDTH 13 0
BBX 13 12 -1 -2
BITMAP
0000
0000
0700
1FC0
1040
1440
1640
1740
1040
1FC0
0000
0000
ENDCHAR
STARTCHAR U+E037
ENCODING 57399
SWIDTH 1248 0
DWIDTH 13 0
BBX 13 12 -1 -2
BITMAP
0000
0000
0700
1FC0
1040
1740
1740
1740
1040
1FC0
0000
0000
ENDCHAR
STARTCHAR U+E038
ENCODING 57400
SWIDTH 1248 0
DWIDTH 13 0
BBX 13 12 -1 -2
BITMAP
0000
0000
0000
1FC0
1040
1060
1060
1040
1FC0
0000
0000
0000
ENDCHAR
STARTCHAR U+E039
ENCODING 57401
SWIDTH 1248 0
DWIDTH 13 0
BBX 13 12 -1 -2
BITMAP
0000
0000
0000
1FC0
1040
1460
1660
1040
1FC0
0000
0000
0000
ENDCHAR
STARTCHAR U+E03A
ENCODING 57402
SWIDTH 1248 0
DWIDTH 13 0
BBX 13 12 -1 -2
BITMAP
0000
0000
0000
1FC0
1040
1660
1760
1040
1FC0
0000
0000
0000
ENDCHAR
STARTCHAR U+E03B
ENCODING 57403
SWIDTH 1248 0
DWIDTH 13 0
BBX 13 12 -1 -2
BITMAP
0000
0000
0000
1FC0
1040
1760
1760
1040
1FC0
0000
0000
0000
ENDCHAR
STARTCHAR U+E03C
ENCODING 57404
SWIDTH 1248 0
DWIDTH 13 0
BBX 13 12 -1 -2
BITMAP
0000
0000
0000
1FC0
1040
1060
1060
1060
1040
1FC0
0000
0000
ENDCHAR
STARTCHAR U+E03D
ENCODING 57405
SWIDTH 1248 0
DWIDTH 13 0
BBX 13 12 -1 -2
BITMAP
0000
0000
0000
1FC0
1040
1060
1460
1660
1040
1FC0
0000
0000
ENDCHAR
STARTCHAR U+E03E
ENCODING 57406
SWIDTH 1248 0
DWIDTH 13 0
BBX 13 12 -1 -2
BITMAP
0000
0000
0000
1FC0
1040
1460
1660
1760
1040
1FC0
0000
0000
ENDCHAR
STARTCHAR U+E03F
ENCODING 57407
SWIDTH 1248 0
DWIDTH 13 0
BBX 13 12 -1 -2
BITMAP
0000
0000
0000
1FC0
1040
1760
1760
1760
1040
1FC0
0000
0000
ENDCHAR
STARTCHAR U+E040
ENCODING 57408
SWIDTH 1248 0
DWIDTH 13 0
BBX 13 12 -1 -2
BITMAP
0000
0000
0080
0100
0300
0600
07C0
0F80
0180
0300
0200
0400
ENDCHAR
STARTCHAR U+E041
ENCODING 57409
SWIDTH 1248 0
DWIDTH 13 0
BBX 13 12 -1 -2
BITMAP
0000
0000
0480
0480
0FC0
0FC0
0FC0
0780
0300
0300
0000
0000
ENDCHAR
STARTCHAR U+E042
ENCODING 57410
SWIDTH 1248 0
DWIDTH 13 0
BBX 13 12 -1 -2
BITMAP
0000
0000
0000
0380
07E0
1F80
1F80
07E0
0380
0000
0000
0000
ENDCHAR
STARTCHAR U+E043
ENCODING 57411
SWIDTH 1248 0
DWIDTH 13 0
BBX 13 12 -1 -2
BITMAP
0000
0000
0700
0900
11E0
1100
1100
11E0
0900
0700
0000
0000
ENDCHAR
STARTCHAR U+E044
ENCODING 57412
SWIDTH 1248 0
DWIDTH 13 0
BBX 13 12 -1 -2
BITMAP
0000
0000
0000
0000
0080
0680
0680
0080
0000
0000
0000
0000
ENDCHAR
STARTCHAR U+E045
ENCODING 57413
SWIDTH 1248 0
DWIDTH 13 0
BBX 13 12 -1 -2
BITMAP
0000
0000
0000
0040
0140
0D40
0D40
0140
0040
0000
0000
0000
ENDCHAR
STARTCHAR U+E046
ENCODING 57414
SWIDTH 1248 0
DWIDTH 13 0
BBX 13 12 -1 -2
BITMAP
0000
0000
0020
00A0
02A0
1AA0
1AA0
02A0
00A0
0020
0000
0000
ENDCHAR
STARTCHAR U+E047
ENCODING 57415
SWIDTH 1248 0
DWIDTH 13 0
BBX 13 12 -1 -2
BITMAP
0000
0000
0000
0000
0060
0060
0360
0360
0360
0360
0000
0000
ENDCHAR
STARTCHAR U+E048
ENCODING 57416
SWIDTH 1248 0
DWIDTH 13 0
BBX 13 12 -1 -2
BITMAP
0000
0000
0060
0060
0360
0360
1B60
1B60
1B60
1B60
0000
0000
ENDCHAR
STARTCHAR U+E049
ENCODING 57417
SWIDTH 1248 0
DWIDTH 13 0
BBX 13 12 -1 -2
BITMAP
0000
0000
0000
0000
0000
0000
0780
0000
0300
0300
0000
0000
ENDCHAR
STARTCHAR U+E04A
ENCODING 57418
SWIDTH 1248 0
DWIDTH 13 0
BBX 13 12 -1 -2
BITMAP
0000
0000
0000
0000
0FC0
0000
0780
0000
0300
0300
0000
0000
ENDCHAR
STARTCHAR U+E04B
ENCODING 57419
SWIDTH 1248 0
DWIDTH 13 0
BBX 13 12 -1 -2
BITMAP
0000
0000
1FE0
0000
0FC0
0000
0780
0000
0300
0300
0000
0000
ENDCHAR
STARTCHAR U+E04C
ENCODING 57420
SWIDTH 1248 0
DWIDTH 13 0
BBX 13 12 -1 -2
BITMAP
0000
0000
0300
0300
0B40
0B40
0840
0780
0300
0FC0
0000
0000
ENDCHAR
STARTCHAR U+E04D
ENCODING 57421
SWIDTH 1248 0
DWIDTH 13 0
BBX 13 12 -1 -2
BITMAP
0000
0000
0780
0840
1020
1020
1020
1CE0
1CE0
0CC0
0000
0000
ENDCHAR
STARTCHAR U+E04E
ENCODING 57422
SWIDTH 1248 0
DWIDTH 13 0
BBX 13 12 -1 -2
BITMAP
0000
0000
0080
0180
0F80
0F80
0F80
0F80
0180
0080
0000
0000
ENDCHAR
STARTCHAR U+E04F
ENCODING 57423
SWIDTH 1248 0
DWIDTH 13 0
BBX 13 12 -1 -2
BITMAP
0000
0000
0080
0180
0FA0
0F40
0E80
0D00
0280
0480
0000
0000
ENDCHAR
STARTCHAR U+E050
ENCODING 57424
SWIDTH 1248 0
DWIDTH 13 0
BBX 13 12 -1 -2
BITMAP
0000
0000
0080
0180
0FA0
0FA0
0FA0
0FA0
0180
0080
0000
0000
ENDCHAR
STARTCHAR U+E051
ENCODING 57425
SWIDTH 1248 0
DWIDTH 13 0
BBX 13 12 -1 -2
BITMAP
0000
0000
0000
0080
0180
0F80
0F80
0F80
0180
0080
0000
0000
ENDCHAR
STARTCHAR U+E052
ENCODING 57426
SWIDTH 1248 0
DWIDTH 13 0
BBX 13 12 -1 -2
BITMAP
0000
0000
0000
0080
0180
0FA0
0F40
0E80
0100
0280
0000
0000
ENDCHAR
STARTCHAR U+E053
ENCODING 57427
SWIDTH 1248 0
DWIDTH 13 0
BBX 13 12 -1 -2
BITMAP
0000
0000
0000
0080
0180
0FA0
0FA0
0FA0
0180
0080
0000
0000
ENDCHAR
STARTCHAR U+E054
ENCODING 57428
SWIDTH 1248 0
DWIDTH 13 0
BBX 13 12 -1 -2
BITMAP
0000
0000
0840
08C0
09C0
0BC0
0BC0
09C0
08C0
0840
0000
0000
ENDCHAR
STARTCHAR U+E055
ENCODING 57429
SWIDTH 1248 0
DWIDTH 13 0
BBX 13 12 -1 -2
BITMAP
0000
0000
0220
0660
0EE0
1FE0
1FE0
0EE0
0660
0220
0000
0000
ENDCHAR
STARTCHAR U+E056
ENCODING 57430
SWIDTH 1248 0
DWIDTH 13 0
BBX 13 12 -1 -2
BITMAP
0000
0000
0780
0FC0
1FE0
1FE0
1FE0
1FE0
0FC0
0780
0000
0000
ENDCHAR
STARTCHAR U+E057
ENCODING 57431
SWIDTH 1248 0
DWIDTH 13 0
BBX 13 12 -1 -2
BITMAP
0000
0000
1FE0
1FE0
1FE0
1FE0
1FE0
1FE0
1FE0
1FE0
0000
0000
ENDCHAR
STARTCHAR U+E058
ENCODING 57432
SWIDTH 1248 0
DWIDTH 13 0
BBX 13 12 -1 -2
BITMAP
0000
0000
0400
0600
0700
0780
0780
0700
0600
0400
0000
0000
ENDCHAR
STARTCHAR U+E059
ENCODING 57433
SWIDTH 1248 0
DWIDTH 13 0
BBX 13 12 -1 -2
BITMAP
0000
0000
0D80
0D80
0D80
0D80
0D80
0D80
0D80
0D80
0000
0000
ENDCHAR
STARTCHAR U+E05A
ENCODING 57434
SWIDTH 1248 0
DWIDTH 13 0
BBX 13 12 -1 -2
BITMAP
0000
0000
0840
0C40
0E40
0F40
0F40
0E40
0C40
0840
0000
0000
ENDCHAR
STARTCHAR U+E05B
ENCODING 57435
SWIDTH 1248 0
DWIDTH 13 0
BBX 13 12 -1 -2
BITMAP
0000
0000
1100
1980
1DC0
1FE0
1FE0
1DC0
1980
1100
0000
0000
ENDCHAR
STARTCHAR U+E05C
ENCODING 57436
SWIDTH 1248 0
DWIDTH 13 0
BBX 13 12 -1 -2
BITMAP
0000
0000
07E0
07E0
0420
0420
0420
0C60
1CE0
18C0
0000
0000
ENDCHAR
STARTCHAR U+E05D
ENCODING 57437
SWIDTH 1248 0
DWIDTH 13 0
BBX 13 12 -1 -2
BITMAP
0000
0000
0200
0640
1E20
1EA0
1EA0
1E20
0640
0200
0000
0000
ENDCHAR
STARTCHAR U+E05E
ENCODING 57438
SWIDTH 1248 0
DWIDTH 13 0
BBX 13 12 -1 -2
BITMAP
0000
0000
0000
1100
1F80
1FC0
1FC0
0F80
0100
0000
0000
0000
ENDCHAR
STARTCHAR U+E05F
ENCODING 57439
SWIDTH 1248 0
DWIDTH 13 0
BBX 13 12 -1 -2
BITMAP
0000
0000
0000
0440
0FC0
1FC0
1FC0
0F80
0400
0000
0000
0000
ENDCHAR
STARTCHAR U+E060
ENCODING 57440
SWIDTH 1248 0
DWIDTH 13 0
BBX 13 12 -1 -2
BITMAP
0000
0000
0300
0780
0FC0
1FE0
0780
0780
0780
0780
0000
0000
ENDCHAR
STARTCHAR U+E061
ENCODING 57441
SWIDTH 1248 0
DWIDTH 13 0
BBX 13 12 -1 -2
BITMAP
0000
0000
0780
0780
0780
0780
1FE0
0FC0
0780
0300
0000
0000
ENDCHAR
STARTCHAR U+E062
ENCODING 57442
SWIDTH 1248 0
DWIDTH 13 0
BBX 13 12 -1 -2
BITMAP
0000
0000
0100
0180
1FC0
1FE0
1FE0
1FC0
0180
0100
0000
0000
ENDCHAR
STARTCHAR U+E063
ENCODING 57443
SWIDTH 1248 0
DWIDTH 13 0
BBX 13 12 -1 -2
BITMAP
0000
0000
0200
0600
0FE0
1FE0
1FE0
0FE0
0600
0200
0000
0000
ENDCHAR
STARTCHAR U+E064
ENCODING 57444
SWIDTH 1248 0
DWIDTH 13 0
BBX 13 12 -1 -2
BITMAP
0000
0000
0300
0780
0FC0
1FE0
0780
0780
0780
03C0
0000
0000
ENDCHAR
STARTCHAR U+E065
ENCODING 57445
SWIDTH 1248 0
DWIDTH 13 0
BBX 13 12 -1 -2
BITMAP
0000
0000
03C0
0780
0780
0780
1FE0
0FC0
0780
0300
0000
0000
ENDCHAR
STARTCHAR U+E066
ENCODING 57446
SWIDTH 1248 0
DWIDTH 13 0
BBX 13 12 -1 -2
BITMAP
0000
0000
0300
0780
0FC0
1FE0
0780
0780
0780
0F00
0000
0000
ENDCHAR
STARTCHAR U+E067
ENCODING 57447
SWIDTH 1248 0
DWIDTH 13 0
BBX 13 12 -1 -2
BITMAP
0000
0000
0F00
0780
0780
0780
1FE0
0FC0
0780
0300
0000
0000
ENDCHAR
STARTCHAR U+E068
ENCODING 57448
SWIDTH 1248 0
DWIDTH 13 0
BBX 13 12 -1 -2
BITMAP
0000
0000
0100
0180
0FC0
1FE0
1FE0
1FC0
1180
0100
0000
0000
ENDCHAR
STARTCHAR U+E069
ENCODING 57449
SWIDTH 1248 0
DWIDTH 13 0
BBX 13 12 -1 -2
BITMAP
0000
0000
0200
0600
0FC0
1FE0
1FE0
0FE0
0620
0200
0000
0000
ENDCHAR
STARTCHAR U+E06A
ENCODING 57450
SWIDTH 1248 0
DWIDTH 13 0
BBX 13 12 -1 -2
BITMAP
0000
0000
0100
1180
1FC0
1FE0
1FE0
0FC0
0180
0100
0000
0000
ENDCHAR
STARTCHAR U+E06B
ENCODING 57451
SWIDTH 1248 0
DWIDTH 13 0
BBX 13 12 -1 -2
BITMAP
0000
0000
0200
0620
0FE0
1FE0
1FE0
0FC0
0600
0200
0000
0000
ENDCHAR
STARTCHAR U+E06C
ENCODING 57452
SWIDTH 1248 0
DWIDTH 13 0
BBX 13 12 -1 -2
BITMAP
0000
0000
0000
0300
0780
0FC0
0780
0780
0780
0780
0000
0000
ENDCHAR
STARTCHAR U+E06D
ENCODING 57453
SWIDTH 1248 0
DWIDTH 13 0
BBX 13 12 -1 -2
BITMAP
0000
0000
0000
0780
0780
0780
0780
0FC0
0780
0300
0000
0000
ENDCHAR
STARTCHAR U+E06E
ENCODING 57454
SWIDTH 1248 0
DWIDTH 13 0
BBX 13 12 -1 -2
BITMAP
0000
0000
0000
0100
1F80
1FC0
1FC0
1F80
0100
0000
0000
0000
ENDCHAR
STARTCHAR U+E06F
ENCODING 57455
SWIDTH 1248 0
DWIDTH 13 0
BBX 13 12 -1 -2
BITMAP
0000
0000
0000
0400
0FC0
1FC0
1FC0
0FC0
0400
0000
0000
0000
ENDCHAR
STARTCHAR U+E070
ENCODING 57456
SWIDTH 1248 0
DWIDTH 13 0
BBX 13 12 -1 -2
BITMAP
0000
0000
1FE0
0FC0
17A0
1B60
1CE0
1FE0
1FE0
1FE0
0000
0000
ENDCHAR
STARTCHAR U+E071
ENCODING 57457
SWIDTH 1248 0
DWIDTH 13 0
BBX 13 12 -1 -2
BITMAP
0000
0000
1FE0
1020
1860
14A0
1320
1020
1020
1FE0
0000
0000
ENDCHAR
STARTCHAR U+E072
ENCODING 57458
SWIDTH 1248 0
DWIDTH 13 0
BBX 13 12 -1 -2
BITMAP
0000
0000
0000
1FE0
0FC0
17A0
1B60
1CE0
1FE0
1FE0
0000
0000
ENDCHAR
STARTCHAR U+E073
ENCODING 57459
SWIDTH 1248 0
DWIDTH 13 0
BBX 13 12 -1 -2
BITMAP
0000
0000
0000
1FE0
1020
1860
14A0
1320
1020
1FE0
0000
0000
ENDCHAR
STARTCHAR U+E074
ENCODING 57460
SWIDTH 1248 0
DWIDTH 13 0
BBX 13 12 -1 -2
BITMAP
0000
0000
1800
1D80
1BC0
0BC0
1D80
1BC0
07E0
07E0
0000
0000
ENDCHAR
STARTCHAR U+E075
ENCODING 57461
SWIDTH 1248 0
DWIDTH 13 0
BBX 13 12 -1 -2
BITMAP
0000
0000
0000
0300
0780
0780
0300
0780
0FC0
0FC0
0000
0000
ENDCHAR
STARTCHAR U+E076
ENCODING 57462
SWIDTH 1248 0
DWIDTH 13 0
BBX 13 12 -1 -2
BITMAP
0000
0000
1FE0
17A0
1B60
1CE0
1CE0
1B60
17A0
1FE0
0000
0000
ENDCHAR
STARTCHAR U+E077
ENCODING 57463
SWIDTH 1248 0
DWIDTH 13 0
BBX 13 12 -1 -2
BITMAP
0000
0000
0780
0CC0
0CC0
0CC0
0CC0
0FC0
0CC0
0780
0000
0000
ENDCHAR
STARTCHAR U+E078
ENCODING 57464
SWIDTH 1248 0
DWIDTH 13 0
BBX 13 12 -1 -2
BITMAP
0000
0000
0780
0CC0
0FC0
0CC0
0CC0
0CC0
0CC0
0780
0000
0000
ENDCHAR
STARTCHAR U+E079
ENCODING 57465
SWIDTH 1248 0
DWIDTH 13 0
BBX 13 12 -1 -2
BITMAP
0000
0000
0780
0FC0
1FE0
1860
1860
1FE0
0FC0
0780
0000
0000
ENDCHAR
STARTCHAR U+E07A
ENCODING 57466
SWIDTH 1248 0
DWIDTH 13 0
BBX 13 12 -1 -2
BITMAP
0000
0000
0000
0300
0780
0FC0
0780
0780
0780
03C0
0000
0000
ENDCHAR
STARTCHAR U+E07B
ENCODING 57467
SWIDTH 1248 0
DWIDTH 13 0
BBX 13 12 -1 -2
BITMAP
0000
0000
0000
03C0
0780
0780
0780
0FC0
0780
0300
0000
0000
ENDCHAR
STARTCHAR U+E07C
ENCODING 57468
SWIDTH 1248 0
DWIDTH 13 0
BBX 13 12 -1 -2
BITMAP
0000
0000
0000
0300
0780
0FC0
0780
0780
0780
0F00
0000
0000
ENDCHAR
STARTCHAR U+E07D
ENCODING 57469
SWIDTH 1248 0
DWIDTH 13 0
BBX 13 12 -1 -2
BITMAP
0000
0000
0000
0F00
0780
0780
0780
0FC0
0780
0300
0000
0000
ENDCHAR
STARTCHAR U+E07E
ENCODING 57470
SWIDTH 1248 0
DWIDTH 13 0
BBX 13 12 -1 -2
BITMAP
0000
0000
0000
0100
0F80
1FC0
1FC0
1F80
1100
0000
0000
0000
ENDCHAR
STARTCHAR U+E07F
ENCODING 57471
SWIDTH 1248 0
DWIDTH 13 0
BBX 13 12 -1 -2
BITMAP
0000
0000
0000
0400
0F80
1FC0
1FC0
0FC0
0440
0000
0000
0000
ENDCHAR
STARTCHAR U+E080
ENCODING 57472
SWIDTH 1248 0
DWIDTH 13 0
BBX 13 12 -1 -2
BITMAP
0000
0000
0000
0100
0280
06C0
0E20
07C0
0380
0100
0000
0000
ENDCHAR
STARTCHAR U+E081
ENCODING 57473
SWIDTH 1248 0
DWIDTH 13 0
BBX 13 12 -1 -2
BITMAP
0000
0000
0000
0FE0
0EE0
0EE0
0E20
0FE0
0FE0
0FE0
0000
0000
ENDCHAR
STARTCHAR U+E082
ENCODING 57474
SWIDTH 1248 0
DWIDTH 13 0
BBX 13 12 -1 -2
BITMAP
0000
0000
0000
0D60
0C60
0380
0BA0
0380
0C60
0D60
0000
0000
ENDCHAR
STARTCHAR U+E083
ENCODING 57475
SWIDTH 1248 0
DWIDTH 13 0
BBX 13 12 -1 -2
BITMAP
0000
0000
0000
0400
05E0
0780
06C0
03C0
0F40
0040
0000
0000
ENDCHAR
STARTCHAR U+E084
ENCODING 57476
SWIDTH 1248 0
DWIDTH 13 0
BBX 13 12 -1 -2
BITMAP
0000
0000
0000
0000
1FC0
1060
1060
1060
1FC0
0000
0000
0000
ENDCHAR
STARTCHAR U+E085
ENCODING 57477
SWIDTH 1248 0
DWIDTH 13 0
BBX 13 12 -1 -2
BITMAP
0000
0000
0000
0000
1FC0
1060
1660
1060
1FC0
0000
0000
0000
ENDCHAR
STARTCHAR U+E086
ENCODING 57478
SWIDTH 1248 0
DWIDTH 13 0
BBX 13 12 -1 -2
BITMAP
0000
0000
0000
0000
1FC0
1060
1760
1060
1FC0
0000
0000
0000
ENDCHAR
STARTCHAR U+E087
ENCODING 57479
SWIDTH 1248 0
DWIDTH 13 0
BBX 13 12 -1 -2
BITMAP
0000
0000
0000
0300
0FC0
0840
0840
0840
0840
0FC0
0000
0000
ENDCHAR
STARTCHAR U+E088
ENCODING 57480
SWIDTH 1248 0
DWIDTH 13 0
BBX 13 12 -1 -2
BITMAP
0000
0000
0000
0300
0FC0
0840
0A40
0B40
0840
0FC0
0000
0000
ENDCHAR
STARTCHAR U+E089
ENCODING 57481
SWIDTH 1248 0
DWIDTH 13 0
BBX 13 12 -1 -2
BITMAP
0000
0000
0000
0300
0FC0
0840
0B40
0B40
0840
0FC0
0000
0000
ENDCHAR
STARTCHAR U+E08A
ENCODING 57482
SWIDTH 1248 0
DWIDTH 13 0
BBX 13 12 -1 -2
BITMAP
0000
0000
0000
0380
07C0
0440
0440
0440
0440
07C0
0000
0000
ENDCHAR
STARTCHAR U+E08B
ENCODING 57483
SWIDTH 1248 0
DWIDTH 13 0
BBX 13 12 -1 -2
BITMAP
0000
0000
0000
0380
07C0
0440
0440
0540
0440
07C0
0000
0000
ENDCHAR
STARTCHAR U+E08C
ENCODING 57484
SWIDTH 1248 0
DWIDTH 13 0
BBX 13 12 -1 -2
BITMAP
0000
0000
0000
0380
07C0
0440
0540
0540
0440
07C0
0000
0000
ENDCHAR
STARTCHAR U+E08D
ENCODING 57485
SWIDTH 1248 0
DWIDTH 13 0
BBX 13 12 -1 -2
BITMAP
0000
0000
0380
07C0
0440
0440
0440
0440
0440
07C0
0000
0000
ENDCHAR
STARTCHAR U+E08E
ENCODING 57486
SWIDTH 1248 0
DWIDTH 13 0
BBX 13 12 -1 -2
BITMAP
0000
0000
0380
07C0
0440
0440
0540
0540
0440
07C0
0000
0000
ENDCHAR
STARTCHAR U+E08F
ENCODING 57487
SWIDTH 1248 0
DWIDTH 13 0
BBX 13 12 -1 -2
BITMAP
0000
0000
0380
07C0
0440
0540
0540
0540
0440
07C0
0000
0000
ENDCHAR
STARTCHAR U+E090
ENCODING 57488
SWIDTH 1248 0
DWIDTH 13 0
BBX 13 12 -1 -2
BITMAP
0000
0000
0000
0FE0
0820
1820
1820
0820
0FE0
0000
0000
0000
ENDCHAR
STARTCHAR U+E091
ENCODING 57489
SWIDTH 1248 0
DWIDTH 13 0
BBX 13 12 -1 -2
BITMAP
0000
0000
0000
0FE0
0820
18A0
19A0
0820
0FE0
0000
0000
0000
ENDCHAR
STARTCHAR U+E092
ENCODING 57490
SWIDTH 1248 0
DWIDTH 13 0
BBX 13 12 -1 -2
BITMAP
0000
0000
0000
0FE0
0820
19A0
1BA0
0820
0FE0
0000
0000
0000
ENDCHAR
STARTCHAR U+E093
ENCODING 57491
SWIDTH 1248 0
DWIDTH 13 0
BBX 13 12 -1 -2
BITMAP
0000
0000
0000
0FE0
0820
1BA0
1BA0
0820
0FE0
0000
0000
0000
ENDCHAR
STARTCHAR U+E094
ENCODING 57492
SWIDTH 1248 0
DWIDTH 13 0
BBX 13 12 -1 -2
BITMAP
0000
0000
0100
0980
11E0
15E0
15E0
11E0
0980
0100
0000
0000
ENDCHAR
STARTCHAR U+E095
ENCODING 57493
SWIDTH 1248 0
DWIDTH 13 0
BBX 13 12 -1 -2
BITMAP
0000
0000
0200
0300
0BE0
0BE0
0BE0
0BE0
0300
0200
0000
0000
ENDCHAR
STARTCHAR U+E096
ENCODING 57494
SWIDTH 1248 0
DWIDTH 13 0
BBX 13 12 -1 -2
BITMAP
0000
0000
0000
0840
08C0
09C0
0BC0
09C0
08C0
0840
0000
0000
ENDCHAR
STARTCHAR U+E097
ENCODING 57495
SWIDTH 1248 0
DWIDTH 13 0
BBX 13 12 -1 -2
BITMAP
0000
0000
0000
0440
0CC0
1DC0
3FC0
1DC0
0CC0
0440
0000
0000
ENDCHAR
STARTCHAR U+E098
ENCODING 57496
SWIDTH 1248 0
DWIDTH 13 0
BBX 13 12 -1 -2
BITMAP
0000
0000
0000
0700
0F80
1FC0
1FC0
1FC0
0F80
0700
0000
0000
ENDCHAR
STARTCHAR U+E099
ENCODING 57497
SWIDTH 1248 0
DWIDTH 13 0
BBX 13 12 -1 -2
BITMAP
0000
0000
0000
1FC0
1FC0
1FC0
1FC0
1FC0
1FC0
1FC0
0000
0000
ENDCHAR
STARTCHAR U+E09A
ENCODING 57498
SWIDTH 1248 0
DWIDTH 13 0
BBX 13 12 -1 -2
BITMAP
0000
0000
0000
0400
0600
0700
0780
0700
0600
0400
0000
0000
ENDCHAR
STARTCHAR U+E09B
ENCODING 57499
SWIDTH 1248 0
DWIDTH 13 0
BBX 13 12 -1 -2
BITMAP
0000
0000
0000
0D80
0D80
0D80
0D80
0D80
0D80
0D80
0000
0000
ENDCHAR
STARTCHAR U+E09C
ENCODING 57500
SWIDTH 1248 0
DWIDTH 13 0
BBX 13 12 -1 -2
BITMAP
0000
0000
0000
0840
0C40
0E40
0F40
0E40
0C40
0840
0000
0000
ENDCHAR
STARTCHAR U+E09D
ENCODING 57501
SWIDTH 1248 0
DWIDTH 13 0
BBX 13 12 -1 -2
BITMAP
0000
0000
0000
1100
1980
1DC0
1FE0
1DC0
1980
1100
0000
0000
ENDCHAR
STARTCHAR U+E09E
ENCODING 57502
SWIDTH 1248 0
DWIDTH 13 0
BBX 13 12 -1 -2
BITMAP
0000
0000
0080
0100
0300
0600
0FC0
0180
0300
0200
0400
0000
ENDCHAR
STARTCHAR U+E09F
ENCODING 57503
SWIDTH 1248 0
DWIDTH 13 0
BBX 13 12 -1 -2
BITMAP
0000
0000
1FE0
1020
1020
1020
1020
1FE0
0300
0FC0
0000
0000
ENDCHAR
STARTCHAR U+E0A0
ENCODING 57504
SWIDTH 1248 0
DWIDTH 13 0
BBX 13 12 -1 -2
BITMAP
0000
0000
0000
0780
0DC0
0F80
0F00
0FC0
0780
0000
0000
0000
ENDCHAR
STARTCHAR U+E0A1
ENCODING 57505
SWIDTH 1248 0
DWIDTH 13 0
BBX 13 12 -1 -2
BITMAP
0000
0000
0300
0300
0780
0780
0FC0
0CC0
1CE0
1860
0000
0000
ENDCHAR
STARTCHAR U+E0A2
ENCODING 57506
SWIDTH 1248 0
DWIDTH 13 0
BBX 13 12 -1 -2
BITMAP
0000
0000
0000
0780
0DC0
0DC0
0C40
0FC0
0780
0000
0000
0000
ENDCHAR
STARTCHAR U+E0A3
ENCODING 57507
SWIDTH 1248 0
DWIDTH 13 0
BBX 13 12 -1 -2
BITMAP
0000
0000
0000
0700
0D80
1DC0
1C40
1FC0
0F80
0700
0000
0000
ENDCHAR
STARTCHAR U+E0A4
ENCODING 57508
SWIDTH 1248 0
DWIDTH 13 0
BBX 13 12 -1 -2
BITMAP
0000
0000
0000
0300
03C0
0300
03C0
0300
0780
0300
0000
0000
ENDCHAR
STARTCHAR U+E0A5
ENCODING 57509
SWIDTH 1248 0
DWIDTH 13 0
BBX 13 12 -1 -2
BITMAP
0000
0000
0000
0240
0700
0740
0500
0880
0880
0700
0000
0000
ENDCHAR
STARTCHAR U+E0A6
ENCODING 57510
SWIDTH 1248 0
DWIDTH 13 0
BBX 13 12 -1 -2
BITMAP
0000
0000
0000
0780
0840
0840
0840
0FC0
0FC0
0FC0
0000
0000
ENDCHAR
STARTCHAR U+E0A7
ENCODING 57511
SWIDTH 1248 0
DWIDTH 13 0
BBX 13 12 -1 -2
BITMAP
0000
0000
0FC0
0CC0
0CC0
0CC0
0CC0
0FC0
0CC0
0FC0
0000
0000
ENDCHAR
STARTCHAR U+E0A8
ENCODING 57512
SWIDTH 1248 0
DWIDTH 13 0
BBX 13 12 -1 -2
BITMAP
0000
0000
0FC0
0CC0
0FC0
0CC0
0CC0
0CC0
0CC0
0FC0
0000
0000
ENDCHAR
STARTCHAR U+E0A9
ENCODING 57513
SWIDTH 1248 0
DWIDTH 13 0
BBX 13 12 -1 -2
BITMAP
0000
0000
0000
0780
0840
1320
1320
0840
0780
0000
0000
0000
ENDCHAR
STARTCHAR U+E0AA
ENCODING 57514
SWIDTH 1248 0
DWIDTH 13 0
BBX 13 12 -1 -2
BITMAP
0000
0000
0700
0F80
1AC0
1AC0
1FC0
1FC0
1FC0
1540
0000
0000
ENDCHAR
STARTCHAR U+E0AB
ENCODING 57515
SWIDTH 1248 0
DWIDTH 13 0
BBX 13 12 -1 -2
BITMAP
0000
0000
0780
0FC0
1CE0
1B60
1B60
1CE0
0FC0
0780
0000
0000
ENDCHAR
STARTCHAR U+E0AC
ENCODING 57516
SWIDTH 1248 0
DWIDTH 13 0
BBX 13 12 -1 -2
BITMAP
0000
0000
0000
0F00
0880
0E40
0940
0D40
0FC0
0000
0000
0000
ENDCHAR
STARTCHAR U+E0AD
ENCODING 57517
SWIDTH 1248 0
DWIDTH 13 0
BBX 13 12 -1 -2
BITMAP
0000
0000
0FC0
1020
1020
1020
1020
0F40
0180
0100
0000
0000
ENDCHAR
STARTCHAR U+E0AE
ENCODING 57518
SWIDTH 1248 0
DWIDTH 13 0
BBX 13 12 -1 -2
BITMAP
0000
0000
0300
0480
0CC0
1CE0
1CE0
0FC0
0480
0300
0000
0000
ENDCHAR
STARTCHAR U+E0AF
ENCODING 57519
SWIDTH 1248 0
DWIDTH 13 0
BBX 13 12 -1 -2
BITMAP
0000
0000
0000
0FC0
0840
0840
0840
0FC0
0300
0FC0
0000
0000
ENDCHAR
STARTCHAR U+E0B0
ENCODING 57520
SWIDTH 1248 0
DWIDTH 13 0
BBX 13 12 -1 -2
BITMAP
0000
0000
0000
0100
0980
0540
0380
0540
0980
0100
0000
0000
ENDCHAR
STARTCHAR U+E0B1
ENCODING 57521
SWIDTH 1248 0
DWIDTH 13 0
BBX 13 12 -1 -2
BITMAP
0000
0000
1F00
1F00
1F00
1F60
1F60
0060
03E0
03E0
0000
0000
ENDCHAR
STARTCHAR U+E0B2
ENCODING 57522
SWIDTH 1248 0
DWIDTH 13 0
BBX 13 12 -1 -2
BITMAP
0000
0000
0300
0780
0FC0
1FE0
0840
0B40
0B40
0FC0
0000
0000
ENDCHAR
STARTCHAR U+E0B3
ENCODING 57523
SWIDTH 1248 0
DWIDTH 13 0
BBX 13 12 -1 -2
BITMAP
0000
0000
0380
0380
0380
0380
0380
0000
0380
0380
0000
0000
ENDCHAR
STARTCHAR U+E0B4
ENCODING 57524
SWIDTH 1248 0
DWIDTH 13 0
BBX 13 12 -1 -2
BITMAP
0000
0000
0000
1FE0
1020
1020
1020
1020
1020
1FE0
0000
0000
ENDCHAR
STARTCHAR U+E0B5
ENCODING 57525
SWIDTH 1248 0
DWIDTH 13 0
BBX 13 12 -1 -2
BITMAP
0000
0000
0000
1FE0
1120
11E0
1120
11E0
1120
1FE0
0000
0000
ENDCHAR
STARTCHAR U+E0B6
ENCODING 57526
SWIDTH 1248 0
DWIDTH 13 0
BBX 13 12 -1 -2
BITMAP
0000
0000
0000
1FE0
1020
1020
1FE0
14A0
14A0
1FE0
0000
0000
ENDCHAR
STARTCHAR U+E0B7
ENCODING 57527
SWIDTH 1248 0
DWIDTH 13 0
BBX 13 12 -1 -2
BITMAP
0000
0000
0000
1FE0
1020
1020
1020
1FE0
1020
1FE0
0000
0000
ENDCHAR
STARTCHAR U+E0B8
ENCODING 57528
SWIDTH 1248 0
DWIDTH 13 0
BBX 13 12 -1 -2
BITMAP
0000
0000
0000
1FE0
14A0
1FE0
14A0
1FE0
14A0
1FE0
0000
0000
ENDCHAR
STARTCHAR U+E0B9
ENCODING 57529
SWIDTH 1248 0
DWIDTH 13 0
BBX 13 12 -1 -2
BITMAP
0000
0000
0000
1F00
1100
1100
1F60
0020
0220
03E0
0000
0000
ENDCHAR
STARTCHAR U+E0BA
ENCODING 57530
SWIDTH 1248 0
DWIDTH 13 0
BBX 13 12 -1 -2
BITMAP
0000
0000
0000
1FE0
1220
13E0
12A0
12E0
12A0
1FE0
0000
0000
ENDCHAR
STARTCHAR U+E0BB
ENCODING 57531
SWIDTH 1248 0
DWIDTH 13 0
BBX 13 12 -1 -2
BITMAP
0000
0000
0000
1FE0
1220
13E0
12A0
13A0
12A0
1FE0
0000
0000
ENDCHAR
STARTCHAR U+E0BC
ENCODING 57532
SWIDTH 1248 0
DWIDTH 13 0
BBX 13 12 -1 -2
BITMAP
0000
0000
0000
1FE0
1120
11E0
1F20
11E0
1120
1FE0
0000
0000
ENDCHAR
STARTCHAR U+E0BD
ENCODING 57533
SWIDTH 1248 0
DWIDTH 13 0
BBX 13 12 -1 -2
BITMAP
0000
0000
0000
1FE0
1120
1120
1FE0
14A0
14A0
1FE0
0000
0000
ENDCHAR
STARTCHAR U+E0BE
ENCODING 57534
SWIDTH 1248 0
DWIDTH 13 0
BBX 13 12 -1 -2
BITMAP
0000
0000
0000
1FE0
1120
1120
1F20
1020
1020
1FE0
0000
0000
ENDCHAR
STARTCHAR U+E0BF
ENCODING 57535
SWIDTH 1248 0
DWIDTH 13 0
BBX 13 12 -1 -2
BITMAP
0000
0000
0300
0480
0840
1FE0
0840
0B40
0B40
0FC0
0000
0000
ENDCHAR
STARTCHAR U+E0C0
ENCODING 57536
SWIDTH 1248 0
DWIDTH 13 0
BBX 13 12 -1 -2
BITMAP
0000
0000
0000
0C60
0BA0
0440
0440
0440
0BA0
0C60
0000
0000
ENDCHAR
STARTCHAR U+E0C1
ENCODING 57537
SWIDTH 1248 0
DWIDTH 13 0
BBX 13 12 -1 -2
BITMAP
0000
0000
1860
17A0
0840
0840
0840
0840
17A0
1860
0000
0000
ENDCHAR
STARTCHAR U+E0C2
ENCODING 57538
SWIDTH 1248 0
DWIDTH 13 0
BBX 13 12 -1 -2
BITMAP
0000
0000
0000
0820
07C0
0440
0440
0440
07C0
0820
0000
0000
ENDCHAR
STARTCHAR U+E0C3
ENCODING 57539
SWIDTH 1248 0
DWIDTH 13 0
BBX 13 12 -1 -2
BITMAP
0000
0000
1020
0FC0
0840
0840
0840
0840
0FC0
1020
0000
0000
ENDCHAR
STARTCHAR U+E0C4
ENCODING 57540
SWIDTH 1248 0
DWIDTH 13 0
BBX 13 12 -1 -2
BITMAP
0000
0000
0000
0AA0
0000
0FE0
0820
0FE0
0000
0AA0
0000
0000
ENDCHAR
STARTCHAR U+E0C5
ENCODING 57541
SWIDTH 1248 0
DWIDTH 13 0
BBX 13 12 -1 -2
BITMAP
0000
0000
0AA0
0000
0FE0
0820
0820
0FE0
0000
0AA0
0000
0000
ENDCHAR
STARTCHAR U+E0C6
ENCODING 57542
SWIDTH 1248 0
DWIDTH 13 0
BBX 13 12 -1 -2
BITMAP
0000
0000
0000
0380
07C0
0D60
0D60
0FE0
0FE0
0AA0
0000
0000
ENDCHAR
STARTCHAR U+E0C7
ENCODING 57543
SWIDTH 1248 0
DWIDTH 13 0
BBX 13 12 -1 -2
BITMAP
0000
0000
0000
0380
07C0
0D60
0FE0
0FE0
0FE0
0AA0
0000
0000
ENDCHAR
STARTCHAR U+E0C8
ENCODING 57544
SWIDTH 1248 0
DWIDTH 13 0
BBX 13 12 -1 -2
BITMAP
0000
0000
0380
07C0
0D60
0FE0
0FE0
0FE0
0FE0
0AA0
0000
0000
ENDCHAR
STARTCHAR U+E0C9
ENCODING 57545
SWIDTH 1248 0
DWIDTH 13 0
BBX 13 12 -1 -2
BITMAP
0000
0000
0000
04C0
11C0
0380
0D00
1200
1200
0C00
0000
0000
ENDCHAR
STARTCHAR U+E0CA
ENCODING 57546
SWIDTH 1248 0
DWIDTH 13 0
BBX 13 12 -1 -2
BITMAP
0000
0000
0260
00A0
0940
0280
0D00
1200
1200
0C00
0000
0000
ENDCHAR
STARTCHAR U+E0CB
ENCODING 57547
SWIDTH 1248 0
DWIDTH 13 0
BBX 13 12 -1 -2
BITMAP
0000
0000
0000
0260
08A0
0140
0680
0900
0900
0600
0000
0000
ENDCHAR
STARTCHAR U+E0CC
ENCODING 57548
SWIDTH 1248 0
DWIDTH 13 0
BBX 13 12 -1 -2
BITMAP
0000
0000
0240
0700
0540
0500
0540
0880
0880
0700
0000
0000
ENDCHAR
STARTCHAR U+E0CD
ENCODING 57549
SWIDTH 1248 0
DWIDTH 13 0
BBX 13 12 -1 -2
BITMAP
0000
0000
0000
0240
0700
0540
0500
0880
0880
0700
0000
0000
ENDCHAR
STARTCHAR U+E0CE
ENCODING 57550
SWIDTH 1248 0
DWIDTH 13 0
BBX 13 12 -1 -2
BITMAP
0000
0000
0000
0700
05C0
0500
05C0
0500
0880
0700
0000
0000
ENDCHAR
STARTCHAR U+E0CF
ENCODING 57551
SWIDTH 1248 0
DWIDTH 13 0
BBX 13 12 -1 -2
BITMAP
0000
0000
0700
05C0
0500
05C0
0500
0880
0880
0700
0000
0000
ENDCHAR
STARTCHAR U+E0D0
ENCODING 57552
SWIDTH 1248 0
DWIDTH 13 0
BBX 13 12 -1 -2
BITMAP
0000
0000
0300
0480
0840
1CE0
0480
0480
0480
0780
0000
0000
ENDCHAR
STARTCHAR U+E0D1
ENCODING 57553
SWIDTH 1248 0
DWIDTH 13 0
BBX 13 12 -1 -2
BITMAP
0000
0000
0780
0480
0480
0480
1CE0
0840
0480
0300
0000
0000
ENDCHAR
STARTCHAR U+E0D2
ENCODING 57554
SWIDTH 1248 0
DWIDTH 13 0
BBX 13 12 -1 -2
BITMAP
0000
0000
0100
0180
1F40
1020
1020
1F40
0180
0100
0000
0000
ENDCHAR
STARTCHAR U+E0D3
ENCODING 57555
SWIDTH 1248 0
DWIDTH 13 0
BBX 13 12 -1 -2
BITMAP
0000
0000
0200
0600
0BE0
1020
1020
0BE0
0600
0200
0000
0000
ENDCHAR
STARTCHAR U+E0D4
ENCODING 57556
SWIDTH 1248 0
DWIDTH 13 0
BBX 13 12 -1 -2
BITMAP
0000
0000
0000
0100
0280
0440
0EE0
0280
0280
0380
0000
0000
ENDCHAR
STARTCHAR U+E0D5
ENCODING 57557
SWIDTH 1248 0
DWIDTH 13 0
BBX 13 12 -1 -2
BITMAP
0000
0000
0000
0380
0280
0280
0EE0
0440
0280
0100
0000
0000
ENDCHAR
STARTCHAR U+E0D6
ENCODING 57558
SWIDTH 1248 0
DWIDTH 13 0
BBX 13 12 -1 -2
BITMAP
0000
0000
0000
0100
0180
0F40
0820
0F40
0180
0100
0000
0000
ENDCHAR
STARTCHAR U+E0D7
ENCODING 57559
SWIDTH 1248 0
DWIDTH 13 0
BBX 13 12 -1 -2
BITMAP
0000
0000
0000
0200
0600
0BC0
1040
0BC0
0600
0200
0000
0000
ENDCHAR
STARTCHAR U+E0D8
ENCODING 57560
SWIDTH 1248 0
DWIDTH 13 0
BBX 13 12 -1 -2
BITMAP
0000
0000
0000
0300
0500
19E0
1100
19E0
0500
0300
0000
0000
ENDCHAR
STARTCHAR U+E0D9
ENCODING 57561
SWIDTH 1248 0
DWIDTH 13 0
BBX 13 12 -1 -2
BITMAP
0000
0000
0300
0500
09E0
1100
1100
09E0
0500
0300
0000
0000
ENDCHAR
STARTCHAR U+E0DA
ENCODING 57562
SWIDTH 1248 0
DWIDTH 13 0
BBX 13 12 -1 -2
BITMAP
0000
0000
0480
0480
0480
0FC0
0840
0480
0300
0300
0000
0000
ENDCHAR
STARTCHAR U+E0DB
ENCODING 57563
SWIDTH 1248 0
DWIDTH 13 0
BBX 13 12 -1 -2
BITMAP
0000
0000
0000
0480
0480
0FC0
0840
0480
0300
0300
0000
0000
ENDCHAR
STARTCHAR U+E0DC
ENCODING 57564
SWIDTH 1248 0
DWIDTH 13 0
BBX 13 12 -1 -2
BITMAP
0000
0000
0000
0780
0840
1280
1100
11E0
0840
0780
0000
0000
ENDCHAR
STARTCHAR U+E0DD
ENCODING 57565
SWIDTH 1248 0
DWIDTH 13 0
BBX 13 12 -1 -2
BITMAP
0000
0000
0300
0480
0480
0840
0840
1320
14A0
1860
0000
0000
ENDCHAR
STARTCHAR U+E0DE
ENCODING 57566
SWIDTH 1248 0
DWIDTH 13 0
BBX 13 12 -1 -2
BITMAP
0000
0000
0780
0840
1240
1080
1100
10E0
0840
0780
0000
0000
ENDCHAR
STARTCHAR U+E0DF
ENCODING 57567
SWIDTH 1248 0
DWIDTH 13 0
BBX 13 12 -1 -2
BITMAP
0000
0000
0000
0100
0280
0280
0440
0540
0AA0
0C60
0000
0000
ENDCHAR
STARTCHAR U+E0E0
ENCODING 57568
SWIDTH 1248 0
DWIDTH 13 0
BBX 13 12 -1 -2
BITMAP
0000
0000
0200
0640
1A20
12A0
12A0
1A20
0640
0200
0000
0000
ENDCHAR
STARTCHAR U+E0E1
ENCODING 57569
SWIDTH 1248 0
DWIDTH 13 0
BBX 13 12 -1 -2
BITMAP
0000
0000
0000
0200
0640
1A20
12A0
1A20
0640
0200
0000
0000
ENDCHAR
STARTCHAR U+E0E2
ENCODING 57570
SWIDTH 1248 0
DWIDTH 13 0
BBX 13 12 -1 -2
BITMAP
0000
0000
0080
0180
0EA0
08A0
08A0
0EA0
0180
0080
0000
0000
ENDCHAR
STARTCHAR U+E0E3
ENCODING 57571
SWIDTH 1248 0
DWIDTH 13 0
BBX 13 12 -1 -2
BITMAP
0000
0000
0000
0080
0180
0EA0
08A0
0EA0
0180
0080
0000
0000
ENDCHAR
STARTCHAR U+E0E4
ENCODING 57572
SWIDTH 1248 0
DWIDTH 13 0
BBX 13 12 -1 -2
BITMAP
0000
0000
0840
08C0
0940
0A40
0A40
0940
08C0
0840
0000
0000
ENDCHAR
STARTCHAR U+E0E5
ENCODING 57573
SWIDTH 1248 0
DWIDTH 13 0
BBX 13 12 -1 -2
BITMAP
0000
0000
0220
0660
0AA0
1320
1320
0AA0
0660
0220
0000
0000
ENDCHAR
STARTCHAR U+E0E6
ENCODING 57574
SWIDTH 1248 0
DWIDTH 13 0
BBX 13 12 -1 -2
BITMAP
0000
0000
0780
0840
1020
1020
1020
1020
0840
0780
0000
0000
ENDCHAR
STARTCHAR U+E0E7
ENCODING 57575
SWIDTH 1248 0
DWIDTH 13 0
BBX 13 12 -1 -2
BITMAP
0000
0000
1FE0
1020
1020
1020
1020
1020
1020
1FE0
0000
0000
ENDCHAR
STARTCHAR U+E0E8
ENCODING 57576
SWIDTH 1248 0
DWIDTH 13 0
BBX 13 12 -1 -2
BITMAP
0000
0000
0400
0600
0500
0480
0480
0500
0600
0400
0000
0000
ENDCHAR
STARTCHAR U+E0E9
ENCODING 57577
SWIDTH 1248 0
DWIDTH 13 0
BBX 13 12 -1 -2
BITMAP
0000
0000
0480
0480
0480
0480
0480
0480
0480
0480
0000
0000
ENDCHAR
STARTCHAR U+E0EA
ENCODING 57578
SWIDTH 1248 0
DWIDTH 13 0
BBX 13 12 -1 -2
BITMAP
0000
0000
0840
0C40
0A40
0940
0940
0A40
0C40
0840
0000
0000
ENDCHAR
STARTCHAR U+E0EB
ENCODING 57579
SWIDTH 1248 0
DWIDTH 13 0
BBX 13 12 -1 -2
BITMAP
0000
0000
1100
1980
1540
1320
1320
1540
1980
1100
0000
0000
ENDCHAR
STARTCHAR U+E0EC
ENCODING 57580
SWIDTH 1248 0
DWIDTH 13 0
BBX 13 12 -1 -2
BITMAP
0000
0000
0000
07C0
0440
0440
0440
0CC0
1540
1980
0000
0000
ENDCHAR
STARTCHAR U+E0ED
ENCODING 57581
SWIDTH 1248 0
DWIDTH 13 0
BBX 13 12 -1 -2
BITMAP
0000
0000
07C0
0440
0440
0440
0440
0CC0
1540
1980
0000
0000
ENDCHAR
STARTCHAR U+E0EE
ENCODING 57582
SWIDTH 1248 0
DWIDTH 13 0
BBX 13 12 -1 -2
BITMAP
0000
0000
0000
0000
0000
0000
0040
0040
0140
0140
0000
0000
ENDCHAR
STARTCHAR U+E0EF
ENCODING 57583
SWIDTH 1248 0
DWIDTH 13 0
BBX 13 12 -1 -2
BITMAP
0000
0000
0000
0000
0040
0040
0140
0140
0540
0540
0000
0000
ENDCHAR
STARTCHAR U+E0F0
ENCODING 57584
SWIDTH 1248 0
DWIDTH 13 0
BBX 13 12 -1 -2
BITMAP
0000
0000
0040
0040
0140
0140
0540
0540
1540
1540
0000
0000
ENDCHAR
STARTCHAR U+E0F1
ENCODING 57585
SWIDTH 1248 0
DWIDTH 13 0
BBX 13 12 -1 -2
BITMAP
0000
0000
0000
0000
0000
0000
0000
0040
0040
0140
0000
0000
ENDCHAR
STARTCHAR U+E0F2
ENCODING 57586
SWIDTH 1248 0
DWIDTH 13 0
BBX 13 12 -1 -2
BITMAP
0000
0000
0000
0000
0000
0040
0040
0140
0140
0540
0000
0000
ENDCHAR
STARTCHAR U+E0F3
ENCODING 57587
SWIDTH 1248 0
DWIDTH 13 0
BBX 13 12 -1 -2
BITMAP
0000
0000
0000
0040
0040
0140
0140
0540
0540
1540
0000
0000
ENDCHAR
STARTCHAR U+E0F4
ENCODING 57588
SWIDTH 1248 0
DWIDTH 13 0
BBX 13 12 -1 -2
BITMAP
0000
0000
0000
0840
08C0
0940
0A40
0940
08C0
0840
0000
0000
ENDCHAR
STARTCHAR U+E0F5
ENCODING 57589
SWIDTH 1248 0
DWIDTH 13 0
BBX 13 12 -1 -2
BITMAP
0000
0000
0000
0440
0CC0
1540
2640
1540
0CC0
0440
0000
0000
ENDCHAR
STARTCHAR U+E0F6
ENCODING 57590
SWIDTH 1248 0
DWIDTH 13 0
BBX 13 12 -1 -2
BITMAP
0000
0000
0000
0700
0880
1040
1040
1040
0880
0700
0000
0000
ENDCHAR
STARTCHAR U+E0F7
ENCODING 57591
SWIDTH 1248 0
DWIDTH 13 0
BBX 13 12 -1 -2
BITMAP
0000
0000
0000
1FC0
1040
1040
1040
1040
1040
1FC0
0000
0000
ENDCHAR
STARTCHAR U+E0F8
ENCODING 57592
SWIDTH 1248 0
DWIDTH 13 0
BBX 13 12 -1 -2
BITMAP
0000
0000
0000
0400
0600
0500
0480
0500
0600
0400
0000
0000
ENDCHAR
STARTCHAR U+E0F9
ENCODING 57593
SWIDTH 1248 0
DWIDTH 13 0
BBX 13 12 -1 -2
BITMAP
0000
0000
0000
0480
0480
0480
0480
0480
0480
0480
0000
0000
ENDCHAR
STARTCHAR U+E0FA
ENCODING 57594
SWIDTH 1248 0
DWIDTH 13 0
BBX 13 12 -1 -2
BITMAP
0000
0000
0000
0420
0620
0520
04A0
0520
0620
0420
0000
0000
ENDCHAR
STARTCHAR U+E0FB
ENCODING 57595
SWIDTH 1248 0
DWIDTH 13 0
BBX 13 12 -1 -2
BITMAP
0000
0000
0000
0440
0660
0550
04C8
0550
0660
0440
0000
0000
ENDCHAR
STARTCHAR U+E0FC
ENCODING 57596
SWIDTH 1248 0
DWIDTH 13 0
BBX 13 12 -1 -2
BITMAP
0000
0000
0000
0780
0840
1020
1020
1CE0
14A0
0CC0
0000
0000
ENDCHAR
STARTCHAR U+E0FD
ENCODING 57597
SWIDTH 1248 0
DWIDTH 13 0
BBX 13 12 -1 -2
BITMAP
0000
0000
0000
0780
0840
1020
1020
1CE0
1CE0
0CC0
0000
0000
ENDCHAR
STARTCHAR U+E0FE
ENCODING 57598
SWIDTH 1248 0
DWIDTH 13 0
BBX 13 12 -1 -2
BITMAP
0000
0000
0000
07C0
07C0
0440
0440
0CC0
1DC0
1980
0000
0000
ENDCHAR
STARTCHAR U+E0FF
ENCODING 57599
SWIDTH 1248 0
DWIDTH 13 0
BBX 13 12 -1 -2
BITMAP
0000
0000
0380
0380
0000
0380
0380
0380
0380
0380
0000
0000
ENDCHAR
STARTCHAR U+E100
ENCODING 57600
SWIDTH 1248 0
DWIDTH 13 0
BBX 13 12 -1 -2
BITMAP
0000
0000
0000
0F20
07E0
0460
0D60
0C40
0FC0
09E0
0000
0000
ENDCHAR
STARTCHAR U+E101
ENCODING 57601
SWIDTH 1248 0
DWIDTH 13 0
BBX 13 12 -1 -2
BITMAP
0000
0000
0000
0E40
07C0
04C0
0C80
0F80
09C0
0000
0000
0000
ENDCHAR
STARTCHAR U+E102
ENCODING 57602
SWIDTH 1248 0
DWIDTH 13 0
BBX 13 12 -1 -2
BITMAP
0000
0000
0000
1FE0
1860
14A0
1320
1020
1FE0
0000
0000
0000
ENDCHAR
STARTCHAR U+E103
ENCODING 57603
SWIDTH 1248 0
DWIDTH 13 0
BBX 13 12 -1 -2
BITMAP
0000
0000
0000
1FE0
0FC0
17A0
1860
1FE0
1FE0
0000
0000
0000
ENDCHAR
STARTCHAR U+E104
ENCODING 57604
SWIDTH 1248 0
DWIDTH 13 0
BBX 13 12 -1 -2
BITMAP
0000
0000
0300
0780
0FC0
1FE0
1FE0
0FC0
0780
0300
0000
0000
ENDCHAR
STARTCHAR U+E105
ENCODING 57605
SWIDTH 1248 0
DWIDTH 13 0
BBX 13 12 -1 -2
BITMAP
0000
0000
0000
0100
0380
07C0
0FE0
07C0
0380
0100
0000
0000
ENDCHAR
STARTCHAR U+E106
ENCODING 57606
SWIDTH 1248 0
DWIDTH 13 0
BBX 13 12 -1 -2
BITMAP
0000
0000
0CC0
1FE0
1FE0
1FE0
1FE0
0FC0
0780
0300
0000
0000
ENDCHAR
STARTCHAR U+E107
ENCODING 57607
SWIDTH 1248 0
DWIDTH 13 0
BBX 13 12 -1 -2
BITMAP
0000
0000
0000
0CC0
1FE0
1FE0
1FE0
0FC0
0780
0300
0000
0000
ENDCHAR
STARTCHAR U+E108
ENCODING 57608
SWIDTH 1248 0
DWIDTH 13 0
BBX 13 12 -1 -2
BITMAP
0000
0000
0100
0280
0440
0EE0
0280
0280
0280
0380
0000
0000
ENDCHAR
STARTCHAR U+E109
ENCODING 57609
SWIDTH 1248 0
DWIDTH 13 0
BBX 13 12 -1 -2
BITMAP
0000
0000
0380
0280
0280
0280
0EE0
0440
0280
0100
0000
0000
ENDCHAR
STARTCHAR U+E10A
ENCODING 57610
SWIDTH 1248 0
DWIDTH 13 0
BBX 13 12 -1 -2
BITMAP
0000
0000
0000
0100
0180
1F40
1020
1F40
0180
0100
0000
0000
ENDCHAR
STARTCHAR U+E10B
ENCODING 57611
SWIDTH 1248 0
DWIDTH 13 0
BBX 13 12 -1 -2
BITMAP
0000
0000
0000
0200
0600
0BE0
1020
0BE0
0600
0200
0000
0000
ENDCHAR
STARTCHAR U+E10C
ENCODING 57612
SWIDTH 1248 0
DWIDTH 13 0
BBX 13 12 -1 -2
BITMAP
0000
0000
0100
0100
0540
0920
0920
0820
0440
0380
0000
0000
ENDCHAR
STARTCHAR U+E10D
ENCODING 57613
SWIDTH 1248 0
DWIDTH 13 0
BBX 13 12 -1 -2
BITMAP
0000
0000
0000
0100
0540
0920
0920
0820
0440
0380
0000
0000
ENDCHAR
STARTCHAR U+E10E
ENCODING 57614
SWIDTH 1248 0
DWIDTH 13 0
BBX 13 12 -1 -2
BITMAP
0000
0000
0000
0100
0280
0440
0FE0
0440
0540
07C0
0000
0000
ENDCHAR
STARTCHAR U+E10F
ENCODING 57615
SWIDTH 1248 0
DWIDTH 13 0
BBX 13 12 -1 -2
BITMAP
0000
0000
0000
0480
05C0
0480
0480
0480
0E80
0480
0000
0000
ENDCHAR
STARTCHAR U+E110
ENCODING 57616
SWIDTH 1248 0
DWIDTH 13 0
BBX 13 12 -1 -2
BITMAP
0000
0000
0000
0100
07C0
0440
0440
0440
0440
07C0
0000
0000
ENDCHAR
STARTCHAR U+E111
ENCODING 57617
SWIDTH 1248 0
DWIDTH 13 0
BBX 13 12 -1 -2
BITMAP
0000
0000
0000
0100
07C0
0440
0440
0540
0440
07C0
0000
0000
ENDCHAR
STARTCHAR U+E112
ENCODING 57618
SWIDTH 1248 0
DWIDTH 13 0
BBX 13 12 -1 -2
BITMAP
0000
0000
0000
0100
07C0
0440
0540
0540
0440
07C0
0000
0000
ENDCHAR
STARTCHAR U+E113
ENCODING 57619
SWIDTH 1248 0
DWIDTH 13 0
BBX 13 12 -1 -2
BITMAP
0000
0000
0000
0000
1FC0
1040
1060
1040
1FC0
0000
0000
0000
ENDCHAR
STARTCHAR U+E114
ENCODING 57620
SWIDTH 1248 0
DWIDTH 13 0
BBX 13 12 -1 -2
BITMAP
0000
0000
0000
0000
1FC0
1040
1460
1040
1FC0
0000
0000
0000
ENDCHAR
STARTCHAR U+E115
ENCODING 57621
SWIDTH 1248 0
DWIDTH 13 0
BBX 13 12 -1 -2
BITMAP
0000
0000
0000
0000
1FC0
1040
1660
1040
1FC0
0000
0000
0000
ENDCHAR
STARTCHAR U+E116
ENCODING 57622
SWIDTH 1248 0
DWIDTH 13 0
BBX 13 12 -1 -2
BITMAP
0000
0000
0000
0000
1FC0
1040
1760
1040
1FC0
0000
0000
0000
ENDCHAR
STARTCHAR U+E117
ENCODING 57623
SWIDTH 1248 0
DWIDTH 13 0
BBX 13 12 -1 -2
BITMAP
0000
0000
0000
0000
0FE0
0820
1820
0820
0FE0
0000
0000
0000
ENDCHAR
STARTCHAR U+E118
ENCODING 57624
SWIDTH 1248 0
DWIDTH 13 0
BBX 13 12 -1 -2
BITMAP
0000
0000
0000
0000
0FE0
0820
18A0
0820
0FE0
0000
0000
0000
ENDCHAR
STARTCHAR U+E119
ENCODING 57625
SWIDTH 1248 0
DWIDTH 13 0
BBX 13 12 -1 -2
BITMAP
0000
0000
0000
0000
0FE0
0820
19A0
0820
0FE0
0000
0000
0000
ENDCHAR
STARTCHAR U+E11A
ENCODING 57626
SWIDTH 1248 0
DWIDTH 13 0
BBX 13 12 -1 -2
BITMAP
0000
0000
0000
0000
0FE0
0820
1BA0
0820
0FE0
0000
0000
0000
ENDCHAR
STARTCHAR U+E11B
ENCODING 57627
SWIDTH 1248 0
DWIDTH 13 0
BBX 13 12 -1 -2
BITMAP
0000
0000
0100
0980
1160
1520
1520
1160
0980
0100
0000
0000
ENDCHAR
STARTCHAR U+E11C
ENCODING 57628
SWIDTH 1248 0
DWIDTH 13 0
BBX 13 12 -1 -2
BITMAP
0000
0000
0000
0100
0980
1160
1520
1160
0980
0100
0000
0000
ENDCHAR
STARTCHAR U+E11D
ENCODING 57629
SWIDTH 1248 0
DWIDTH 13 0
BBX 13 12 -1 -2
BITMAP
0000
0000
0200
0300
0AE0
0A20
0A20
0AE0
0300
0200
0000
0000
ENDCHAR
STARTCHAR U+E11E
ENCODING 57630
SWIDTH 1248 0
DWIDTH 13 0
BBX 13 12 -1 -2
BITMAP
0000
0000
0000
0200
0300
0AE0
0A20
0AE0
0300
0200
0000
0000
ENDCHAR
STARTCHAR U+E11F
ENCODING 57631
SWIDTH 1248 0
DWIDTH 13 0
BBX 13 12 -1 -2
BITMAP
0000
0000
0000
0000
0040
0FE0
0040
0400
0FE0
0400
0000
0000
ENDCHAR
STARTCHAR U+E120
ENCODING 57632
SWIDTH 1248 0
DWIDTH 13 0
BBX 13 12 -1 -2
BITMAP
0000
0000
0000
0FE0
0820
0C60
0BA0
0820
0820
0FE0
0000
0000
ENDCHAR
STARTCHAR U+E121
ENCODING 57633
SWIDTH 1248 0
DWIDTH 13 0
BBX 13 12 -1 -2
BITMAP
0000
0000
0000
0FE0
07C0
0BA0
0C60
0FE0
0FE0
0FE0
0000
0000
ENDCHAR
STARTCHAR U+E122
ENCODING 57634
SWIDTH 1248 0
DWIDTH 13 0
BBX 13 12 -1 -2
BITMAP
0000
0000
0000
0FE0
0820
0C60
0BA0
0820
0FE0
0000
0000
0000
ENDCHAR
STARTCHAR U+E123
ENCODING 57635
SWIDTH 1248 0
DWIDTH 13 0
BBX 13 12 -1 -2
BITMAP
0000
0000
0000
0FE0
07C0
0BA0
0C60
0FE0
0FE0
0000
0000
0000
ENDCHAR
STARTCHAR U+E124
ENCODING 57636
SWIDTH 1248 0
DWIDTH 13 0
BBX 13 12 -1 -2
BITMAP
0000
0000
0000
0FE0
0C60
0AA0
0920
0820
0820
0FE0
0000
0000
ENDCHAR
STARTCHAR U+E125
ENCODING 57637
SWIDTH 1248 0
DWIDTH 13 0
BBX 13 12 -1 -2
BITMAP
0000
0000
0000
0FE0
0C60
0AA0
0920
0820
0FE0
0000
0000
0000
ENDCHAR
STARTCHAR U+E126
ENCODING 57638
SWIDTH 1248 0
DWIDTH 13 0
BBX 13 12 -1 -2
BITMAP
0000
0000
0000
0000
0FE0
0C60
0BA0
0820
0FE0
0000
0000
0000
ENDCHAR
STARTCHAR U+E127
ENCODING 57639
SWIDTH 1248 0
DWIDTH 13 0
BBX 13 12 -1 -2
BITMAP
0000
0000
0000
0000
0FE0
07C0
0BA0
0C60
0FE0
0000
0000
0000
ENDCHAR
STARTCHAR U+E128
ENCODING 57640
SWIDTH 1248 0
DWIDTH 13 0
BBX 13 12 -1 -2
BITMAP
0000
0000
0000
0380
0440
0920
09A0
0820
0440
0380
0000
0000
ENDCHAR
STARTCHAR U+E129
ENCODING 57641
SWIDTH 1248 0
DWIDTH 13 0
BBX 13 12 -1 -2
BITMAP
0000
0000
0000
0100
0280
0540
09A0
0440
0280
0100
0000
0000
ENDCHAR
STARTCHAR U+E12A
ENCODING 57642
SWIDTH 1248 0
DWIDTH 13 0
BBX 13 12 -1 -2
BITMAP
0000
0000
0000
0FE0
0820
0920
09A0
0820
0820
0FE0
0000
0000
ENDCHAR
STARTCHAR U+E12B
ENCODING 57643
SWIDTH 1248 0
DWIDTH 13 0
BBX 13 12 -1 -2
BITMAP
0000
0000
0100
0380
07C0
0100
0100
0100
0100
0100
0000
0000
ENDCHAR
STARTCHAR U+E12C
ENCODING 57644
SWIDTH 1248 0
DWIDTH 13 0
BBX 13 12 -1 -2
BITMAP
0000
0000
0100
0100
0100
0100
0100
07C0
0380
0100
0000
0000
ENDCHAR
STARTCHAR U+E12D
ENCODING 57645
SWIDTH 1248 0
DWIDTH 13 0
BBX 13 12 -1 -2
BITMAP
0000
0000
0000
0080
00C0
1FE0
00C0
0080
0000
0000
0000
0000
ENDCHAR
STARTCHAR U+E12E
ENCODING 57646
SWIDTH 1248 0
DWIDTH 13 0
BBX 13 12 -1 -2
BITMAP
0000
0000
0000
0400
0C00
1FE0
0C00
0400
0000
0000
0000
0000
ENDCHAR
STARTCHAR U+E12F
ENCODING 57647
SWIDTH 1248 0
DWIDTH 13 0
BBX 13 12 -1 -2
BITMAP
0000
0000
0480
05C0
0480
0480
0480
0480
0E80
0480
0000
0000
ENDCHAR
STARTCHAR U+E130
ENCODING 57648
SWIDTH 1248 0
DWIDTH 13 0
BBX 13 12 -1 -2
BITMAP
0000
0000
1FE0
1020
1020
1020
1020
1020
1020
1FE0
0000
0000
ENDCHAR
STARTCHAR U+E131
ENCODING 57649
SWIDTH 1248 0
DWIDTH 13 0
BBX 13 12 -1 -2
BITMAP
0000
0000
1FE0
1120
11E0
1120
1120
11E0
1120
1FE0
0000
0000
ENDCHAR
STARTCHAR U+E132
ENCODING 57650
SWIDTH 1248 0
DWIDTH 13 0
BBX 13 12 -1 -2
BITMAP
0000
0000
1FE0
1020
1020
1020
1FE0
14A0
14A0
1FE0
0000
0000
ENDCHAR
STARTCHAR U+E133
ENCODING 57651
SWIDTH 1248 0
DWIDTH 13 0
BBX 13 12 -1 -2
BITMAP
0000
0000
1FE0
1020
1020
1FE0
1020
1FE0
1020
1FE0
0000
0000
ENDCHAR
STARTCHAR U+E134
ENCODING 57652
SWIDTH 1248 0
DWIDTH 13 0
BBX 13 12 -1 -2
BITMAP
0000
0000
1FE0
14A0
1FE0
14A0
14A0
1FE0
14A0
1FE0
0000
0000
ENDCHAR
STARTCHAR U+E135
ENCODING 57653
SWIDTH 1248 0
DWIDTH 13 0
BBX 13 12 -1 -2
BITMAP
0000
0000
1F00
1100
1100
1160
1F20
0020
0220
03E0
0000
0000
ENDCHAR
STARTCHAR U+E136
ENCODING 57654
SWIDTH 1248 0
DWIDTH 13 0
BBX 13 12 -1 -2
BITMAP
0000
0000
1FE0
1220
1220
13E0
12A0
12E0
12A0
1FE0
0000
0000
ENDCHAR
STARTCHAR U+E137
ENCODING 57655
SWIDTH 1248 0
DWIDTH 13 0
BBX 13 12 -1 -2
BITMAP
0000
0000
1FE0
1220
1220
13E0
12A0
13A0
12A0
1FE0
0000
0000
ENDCHAR
STARTCHAR U+E138
ENCODING 57656
SWIDTH 1248 0
DWIDTH 13 0
BBX 13 12 -1 -2
BITMAP
0000
0000
1FE0
1220
13E0
1220
1E20
13E0
1220
1FE0
0000
0000
ENDCHAR
STARTCHAR U+E139
ENCODING 57657
SWIDTH 1248 0
DWIDTH 13 0
BBX 13 12 -1 -2
BITMAP
0000
0000
1FE0
1120
1120
1120
1FE0
14A0
14A0
1FE0
0000
0000
ENDCHAR
STARTCHAR U+E13A
ENCODING 57658
SWIDTH 1248 0
DWIDTH 13 0
BBX 13 12 -1 -2
BITMAP
0000
0000
1FE0
1120
1120
1120
1F20
1020
1020
1FE0
0000
0000
ENDCHAR
STARTCHAR U+E13B
ENCODING 57659
SWIDTH 1248 0
DWIDTH 13 0
BBX 13 12 -1 -2
BITMAP
0000
0000
0000
0100
0380
07C0
0100
0100
0100
0100
0000
0000
ENDCHAR
STARTCHAR U+E13C
ENCODING 57660
SWIDTH 1248 0
DWIDTH 13 0
BBX 13 12 -1 -2
BITMAP
0000
0000
0000
0100
0100
0100
0100
07C0
0380
0100
0000
0000
ENDCHAR
STARTCHAR U+E13D
ENCODING 57661
SWIDTH 1248 0
DWIDTH 13 0
BBX 13 12 -1 -2
BITMAP
0000
0000
0000
0000
0100
0180
1FC0
0180
0100
0000
0000
0000
ENDCHAR
STARTCHAR U+E13E
ENCODING 57662
SWIDTH 1248 0
DWIDTH 13 0
BBX 13 12 -1 -2
BITMAP
0000
0000
0000
0000
0400
0C00
1FC0
0C00
0400
0000
0000
0000
ENDCHAR
STARTCHAR U+E13F
ENCODING 57663
SWIDTH 1248 0
DWIDTH 13 0
BBX 13 12 -1 -2
BITMAP
0000
0000
0000
0000
0040
1FE0
0040
0800
1FE0
0800
0000
0000
ENDCHAR
STARTCHAR U+E140
ENCODING 57664
SWIDTH 1248 0
DWIDTH 13 0
BBX 13 12 -1 -2
BITMAP
0000
0000
0380
0440
0AA0
0AA0
0820
0820
0D60
0AA0
0000
0000
ENDCHAR
STARTCHAR U+E141
ENCODING 57665
SWIDTH 1248 0
DWIDTH 13 0
BBX 13 12 -1 -2
BITMAP
0000
0000
0000
0380
0440
0AA0
0AA0
0820
0D60
0AA0
0000
0000
ENDCHAR
STARTCHAR U+E142
ENCODING 57666
SWIDTH 1248 0
DWIDTH 13 0
BBX 13 12 -1 -2
BITMAP
0000
0000
0380
0440
0AA0
0820
0820
0820
0D60
0AA0
0000
0000
ENDCHAR
STARTCHAR U+E143
ENCODING 57667
SWIDTH 1248 0
DWIDTH 13 0
BBX 13 12 -1 -2
BITMAP
0000
0000
0000
0380
0440
0AA0
0820
0820
0D60
0AA0
0000
0000
ENDCHAR
STARTCHAR U+E144
ENCODING 57668
SWIDTH 1248 0
DWIDTH 13 0
BBX 13 12 -1 -2
BITMAP
0000
0000
0000
0FE0
0820
0820
0BA0
0AA0
0AA0
07E0
0000
0000
ENDCHAR
STARTCHAR U+E145
ENCODING 57669
SWIDTH 1248 0
DWIDTH 13 0
BBX 13 12 -1 -2
BITMAP
0000
0000
0000
0FE0
0820
0820
0BA0
0BA0
0BA0
07E0
0000
0000
ENDCHAR
STARTCHAR U+E146
ENCODING 57670
SWIDTH 1248 0
DWIDTH 13 0
BBX 13 12 -1 -2
BITMAP
0000
0000
1FE0
1020
1020
1020
17A0
14A0
14A0
0FE0
0000
0000
ENDCHAR
STARTCHAR U+E147
ENCODING 57671
SWIDTH 1248 0
DWIDTH 13 0
BBX 13 12 -1 -2
BITMAP
0000
0000
1FE0
1020
1020
1020
17A0
15A0
15A0
0FE0
0000
0000
ENDCHAR
STARTCHAR U+E148
ENCODING 57672
SWIDTH 1248 0
DWIDTH 13 0
BBX 13 12 -1 -2
BITMAP
0000
0000
0000
0380
0380
0FE0
0FE0
0AA0
0FE0
0FE0
0000
0000
ENDCHAR
STARTCHAR U+E149
ENCODING 57673
SWIDTH 1248 0
DWIDTH 13 0
BBX 13 12 -1 -2
BITMAP
0000
0000
0380
0380
0FE0
0FE0
0FE0
0AA0
0FE0
0FE0
0000
0000
ENDCHAR
STARTCHAR U+E14A
ENCODING 57674
SWIDTH 1248 0
DWIDTH 13 0
BBX 13 12 -1 -2
BITMAP
0000
0000
0000
1FE0
1020
1020
1020
1FE0
0300
0FC0
0000
0000
ENDCHAR
STARTCHAR U+E14B
ENCODING 57675
SWIDTH 1248 0
DWIDTH 13 0
BBX 13 12 -1 -2
BITMAP
0000
0000
0FC0
0FC0
0000
0780
0780
0000
0300
0300
0000
0000
ENDCHAR
STARTCHAR U+E14C
ENCODING 57676
SWIDTH 1248 0
DWIDTH 13 0
BBX 13 12 -1 -2
BITMAP
0000
0000
0000
0060
0360
1B60
1B60
0360
0060
0000
0000
0000
ENDCHAR
STARTCHAR U+E14D
ENCODING 57677
SWIDTH 1248 0
DWIDTH 13 0
BBX 13 12 -1 -2
BITMAP
0000
0000
0000
0780
0DC0
1F80
1F00
1E00
0FC0
0780
0000
0000
ENDCHAR
STARTCHAR U+E14E
ENCODING 57678
SWIDTH 1248 0
DWIDTH 13 0
BBX 13 12 -1 -2
BITMAP
0000
0000
0000
00C0
03C0
0FC0
1FC0
0FC0
03C0
00C0
0000
0000
ENDCHAR
STARTCHAR U+E14F
ENCODING 57679
SWIDTH 1248 0
DWIDTH 13 0
BBX 13 12 -1 -2
BITMAP
0000
0000
0000
1800
1E00
1F80
1FC0
1F80
1E00
1800
0000
0000
ENDCHAR
STARTCHAR U+E150
ENCODING 57680
SWIDTH 1248 0
DWIDTH 13 0
BBX 13 12 -1 -2
BITMAP
0000
0000
0000
0300
0580
0DC0
1C60
0FC0
0780
0300
0000
0000
ENDCHAR
STARTCHAR U+E151
ENCODING 57681
SWIDTH 1248 0
DWIDTH 13 0
BBX 13 12 -1 -2
BITMAP
0000
0000
0000
0380
06C0
0EE0
0E20
0FE0
07C0
0380
0000
0000
ENDCHAR
STARTCHAR U+E152
ENCODING 57682
SWIDTH 1248 0
DWIDTH 13 0
BBX 13 12 -1 -2
BITMAP
0000
0000
0000
0200
0640
1E20
1EA0
1E20
0640
0200
0000
0000
ENDCHAR
STARTCHAR U+E153
ENCODING 57683
SWIDTH 1248 0
DWIDTH 13 0
BBX 13 12 -1 -2
BITMAP
0000
0000
0300
0780
0FC0
1FE0
1FE0
0FC0
0300
0780
0000
0000
ENDCHAR
STARTCHAR U+E154
ENCODING 57684
SWIDTH 1248 0
DWIDTH 13 0
BBX 13 12 -1 -2
BITMAP
0000
0000
0000
0300
0780
0FC0
1FE0
0FC0
0300
0780
0000
0000
ENDCHAR
STARTCHAR U+E155
ENCODING 57685
SWIDTH 1248 0
DWIDTH 13 0
BBX 13 12 -1 -2
BITMAP
0000
0000
0000
0300
0780
0FC0
1FE0
0780
0780
0780
0000
0000
ENDCHAR
STARTCHAR U+E156
ENCODING 57686
SWIDTH 1248 0
DWIDTH 13 0
BBX 13 12 -1 -2
BITMAP
0000
0000
0000
0780
0780
0780
1FE0
0FC0
0780
0300
0000
0000
ENDCHAR
STARTCHAR U+E157
ENCODING 57687
SWIDTH 1248 0
DWIDTH 13 0
BBX 13 12 -1 -2
BITMAP
0000
0000
0000
0100
0180
0FC0
0FE0
0FC0
0180
0100
0000
0000
ENDCHAR
STARTCHAR U+E158
ENCODING 57688
SWIDTH 1248 0
DWIDTH 13 0
BBX 13 12 -1 -2
BITMAP
0000
0000
0000
0200
0600
0FC0
1FC0
0FC0
0600
0200
0000
0000
ENDCHAR
STARTCHAR U+E159
ENCODING 57689
SWIDTH 1248 0
DWIDTH 13 0
BBX 13 12 -1 -2
BITMAP
0000
0000
0000
0300
0780
0FC0
1FE0
0000
1FE0
0000
0000
0000
ENDCHAR
STARTCHAR U+E15A
ENCODING 57690
SWIDTH 1248 0
DWIDTH 13 0
BBX 13 12 -1 -2
BITMAP
0000
0000
0000
0100
0380
07C0
0FE0
0000
0FE0
0000
0000
0000
ENDCHAR
STARTCHAR U+E15B
ENCODING 57691
SWIDTH 1248 0
DWIDTH 13 0
BBX 13 12 -1 -2
BITMAP
0000
0000
0000
0000
1FC0
1040
1060
1060
1040
1FC0
0000
0000
ENDCHAR
STARTCHAR U+E15C
ENCODING 57692
SWIDTH 1248 0
DWIDTH 13 0
BBX 13 12 -1 -2
BITMAP
0000
0000
0000
0000
1FC0
1040
1460
1660
1040
1FC0
0000
0000
ENDCHAR
STARTCHAR U+E15D
ENCODING 57693
SWIDTH 1248 0
DWIDTH 13 0
BBX 13 12 -1 -2
BITMAP
0000
0000
0000
0000
1FC0
1040
1660
1760
1040
1FC0
0000
0000
ENDCHAR
STARTCHAR U+E15E
ENCODING 57694
SWIDTH 1248 0
DWIDTH 13 0
BBX 13 12 -1 -2
BITMAP
0000
0000
0000
0000
1FC0
1040
1760
1760
1040
1FC0
0000
0000
ENDCHAR
STARTCHAR U+E15F
ENCODING 57695
SWIDTH 1248 0
DWIDTH 13 0
BBX 13 12 -1 -2
BITMAP
0000
0000
0000
0700
0D80
0D80
0F80
0D80
0D80
0700
0000
0000
ENDCHAR
STARTCHAR U+E160
ENCODING 57696
SWIDTH 1248 0
DWIDTH 13 0
BBX 13 12 -1 -2
BITMAP
0000
0000
0000
0300
0700
0300
0300
0300
0300
0780
0000
0000
ENDCHAR
STARTCHAR U+E161
ENCODING 57697
SWIDTH 1248 0
DWIDTH 13 0
BBX 13 12 -1 -2
BITMAP
0000
0000
0000
0380
06C0
00C0
0180
0300
0600
07C0
0000
0000
ENDCHAR
STARTCHAR U+E162
ENCODING 57698
SWIDTH 1248 0
DWIDTH 13 0
BBX 13 12 -1 -2
BITMAP
0000
0000
0000
0380
06C0
00C0
0380
00C0
06C0
0380
0000
0000
ENDCHAR
STARTCHAR U+E163
ENCODING 57699
SWIDTH 1248 0
DWIDTH 13 0
BBX 13 12 -1 -2
BITMAP
0000
0000
0000
0180
0380
0580
0980
0FC0
0180
0180
0000
0000
ENDCHAR
STARTCHAR U+E164
ENCODING 57700
SWIDTH 1248 0
DWIDTH 13 0
BBX 13 12 -1 -2
BITMAP
0000
0000
0000
07C0
0600
0780
00C0
00C0
06C0
0380
0000
0000
ENDCHAR
STARTCHAR U+E165
ENCODING 57701
SWIDTH 1248 0
DWIDTH 13 0
BBX 13 12 -1 -2
BITMAP
0000
0000
0000
0180
0300
0600
0780
06C0
06C0
0380
0000
0000
ENDCHAR
STARTCHAR U+E166
ENCODING 57702
SWIDTH 1248 0
DWIDTH 13 0
BBX 13 12 -1 -2
BITMAP
0000
0000
0000
07C0
00C0
0180
0180
0300
0300
0300
0000
0000
ENDCHAR
STARTCHAR U+E167
ENCODING 57703
SWIDTH 1248 0
DWIDTH 13 0
BBX 13 12 -1 -2
BITMAP
0000
0000
0000
0380
06C0
06C0
0380
06C0
06C0
0380
0000
0000
ENDCHAR
STARTCHAR U+E168
ENCODING 57704
SWIDTH 1248 0
DWIDTH 13 0
BBX 13 12 -1 -2
BITMAP
0000
0000
0000
0380
06C0
06C0
03C0
00C0
0180
0300
0000
0000
ENDCHAR
STARTCHAR U+E169
ENCODING 57705
SWIDTH 1248 0
DWIDTH 13 0
BBX 13 12 -1 -2
BITMAP
0000
0000
0780
0CC0
0CC0
0DC0
0EC0
0CC0
0CC0
0780
0000
0000
ENDCHAR
STARTCHAR U+E16A
ENCODING 57706
SWIDTH 1248 0
DWIDTH 13 0
BBX 13 12 -1 -2
BITMAP
0000
0000
0300
0700
0300
0300
0300
0300
0300
0780
0000
0000
ENDCHAR
STARTCHAR U+E16B
ENCODING 57707
SWIDTH 1248 0
DWIDTH 13 0
BBX 13 12 -1 -2
BITMAP
0000
0000
0780
0CC0
00C0
0180
0300
0600
0C00
0FC0
0000
0000
ENDCHAR
STARTCHAR U+E16C
ENCODING 57708
SWIDTH 1248 0
DWIDTH 13 0
BBX 13 12 -1 -2
BITMAP
0000
0000
0780
0CC0
00C0
0380
00C0
00C0
0CC0
0780
0000
0000
ENDCHAR
STARTCHAR U+E16D
ENCODING 57709
SWIDTH 1248 0
DWIDTH 13 0
BBX 13 12 -1 -2
BITMAP
0000
0000
0180
0380
0580
0980
0FC0
0180
0180
0180
0000
0000
ENDCHAR
STARTCHAR U+E16E
ENCODING 57710
SWIDTH 1248 0
DWIDTH 13 0
BBX 13 12 -1 -2
BITMAP
0000
0000
0FC0
0C00
0C00
0F80
00C0
00C0
0CC0
0780
0000
0000
ENDCHAR
STARTCHAR U+E16F
ENCODING 57711
SWIDTH 1248 0
DWIDTH 13 0
BBX 13 12 -1 -2
BITMAP
0000
0000
0380
0600
0C00
0F80
0CC0
0CC0
0CC0
0780
0000
0000
ENDCHAR
STARTCHAR U+E170
ENCODING 57712
SWIDTH 1248 0
DWIDTH 13 0
BBX 13 12 -1 -2
BITMAP
0000
0000
0FC0
00C0
00C0
0180
0180
0300
0300
0300
0000
0000
ENDCHAR
STARTCHAR U+E171
ENCODING 57713
SWIDTH 1248 0
DWIDTH 13 0
BBX 13 12 -1 -2
BITMAP
0000
0000
0780
0CC0
0CC0
0780
0CC0
0CC0
0CC0
0780
0000
0000
ENDCHAR
STARTCHAR U+E172
ENCODING 57714
SWIDTH 1248 0
DWIDTH 13 0
BBX 13 12 -1 -2
BITMAP
0000
0000
0780
0CC0
0CC0
0CC0
07C0
00C0
0180
0700
0000
0000
ENDCHAR
STARTCHAR U+E173
ENCODING 57715
SWIDTH 1248 0
DWIDTH 13 0
BBX 13 12 -1 -2
BITMAP
0000
0000
0000
0FC0
0CC0
0DC0
0FC0
0EC0
0CC0
0FC0
0000
0000
ENDCHAR
STARTCHAR U+E174
ENCODING 57716
SWIDTH 1248 0
DWIDTH 13 0
BBX 13 12 -1 -2
BITMAP
0000
0000
0000
0300
0700
0300
0300
0300
0300
0300
0000
0000
ENDCHAR
STARTCHAR U+E175
ENCODING 57717
SWIDTH 1248 0
DWIDTH 13 0
BBX 13 12 -1 -2
BITMAP
0000
0000
0000
0FC0
00C0
00C0
0FC0
0C00
0C00
0FC0
0000
0000
ENDCHAR
STARTCHAR U+E176
ENCODING 57718
SWIDTH 1248 0
DWIDTH 13 0
BBX 13 12 -1 -2
BITMAP
0000
0000
0000
0FC0
00C0
00C0
0FC0
00C0
00C0
0FC0
0000
0000
ENDCHAR
STARTCHAR U+E177
ENCODING 57719
SWIDTH 1248 0
DWIDTH 13 0
BBX 13 12 -1 -2
BITMAP
0000
0000
0000
0CC0
0CC0
0CC0
0FC0
00C0
00C0
00C0
0000
0000
ENDCHAR
STARTCHAR U+E178
ENCODING 57720
SWIDTH 1248 0
DWIDTH 13 0
BBX 13 12 -1 -2
BITMAP
0000
0000
0000
0FC0
0C00
0C00
0FC0
00C0
00C0
0FC0
0000
0000
ENDCHAR
STARTCHAR U+E179
ENCODING 57721
SWIDTH 1248 0
DWIDTH 13 0
BBX 13 12 -1 -2
BITMAP
0000
0000
0000
0FC0
0C00
0C00
0FC0
0CC0
0CC0
0FC0
0000
0000
ENDCHAR
STARTCHAR U+E17A
ENCODING 57722
SWIDTH 1248 0
DWIDTH 13 0
BBX 13 12 -1 -2
BITMAP
0000
0000
0000
0FC0
00C0
00C0
00C0
00C0
00C0
00C0
0000
0000
ENDCHAR
STARTCHAR U+E17B
ENCODING 57723
SWIDTH 1248 0
DWIDTH 13 0
BBX 13 12 -1 -2
BITMAP
0000
0000
0000
0FC0
0CC0
0CC0
0780
0CC0
0CC0
0FC0
0000
0000
ENDCHAR
STARTCHAR U+E17C
ENCODING 57724
SWIDTH 1248 0
DWIDTH 13 0
BBX 13 12 -1 -2
BITMAP
0000
0000
0000
0FC0
0CC0
0CC0
0FC0
00C0
00C0
00C0
0000
0000
ENDCHAR
STARTCHAR U+E17D
ENCODING 57725
SWIDTH 1248 0
DWIDTH 13 0
BBX 13 12 -1 -2
BITMAP
0000
0000
0FC0
0CC0
0DC0
0DC0
0EC0
0EC0
0CC0
0FC0
0000
0000
ENDCHAR
STARTCHAR U+E17E
ENCODING 57726
SWIDTH 1248 0
DWIDTH 13 0
BBX 13 12 -1 -2
BITMAP
0000
0000
0180
0380
0780
0180
0180
0180
0180
0180
0000
0000
ENDCHAR
STARTCHAR U+E17F
ENCODING 57727
SWIDTH 1248 0
DWIDTH 13 0
BBX 13 12 -1 -2
BITMAP
0000
0000
0FC0
00C0
00C0
0FC0
0C00
0C00
0C00
0FC0
0000
0000
ENDCHAR
STARTCHAR U+E180
ENCODING 57728
SWIDTH 1248 0
DWIDTH 13 0
BBX 13 12 -1 -2
BITMAP
0000
0000
0FC0
00C0
00C0
0FC0
00C0
00C0
00C0
0FC0
0000
0000
ENDCHAR
STARTCHAR U+E181
ENCODING 57729
SWIDTH 1248 0
DWIDTH 13 0
BBX 13 12 -1 -2
BITMAP
0000
0000
0CC0
0CC0
0CC0
0FC0
00C0
00C0
00C0
00C0
0000
0000
ENDCHAR
STARTCHAR U+E182
ENCODING 57730
SWIDTH 1248 0
DWIDTH 13 0
BBX 13 12 -1 -2
BITMAP
0000
0000
0FC0
0C00
0C00
0FC0
00C0
00C0
00C0
0FC0
0000
0000
ENDCHAR
STARTCHAR U+E183
ENCODING 57731
SWIDTH 1248 0
DWIDTH 13 0
BBX 13 12 -1 -2
BITMAP
0000
0000
0FC0
0C00
0C00
0FC0
0CC0
0CC0
0CC0
0FC0
0000
0000
ENDCHAR
STARTCHAR U+E184
ENCODING 57732
SWIDTH 1248 0
DWIDTH 13 0
BBX 13 12 -1 -2
BITMAP
0000
0000
0FC0
00C0
00C0
00C0
00C0
00C0
00C0
00C0
0000
0000
ENDCHAR
STARTCHAR U+E185
ENCODING 57733
SWIDTH 1248 0
DWIDTH 13 0
BBX 13 12 -1 -2
BITMAP
0000
0000
0FC0
0CC0
0CC0
0780
0CC0
0CC0
0CC0
0FC0
0000
0000
ENDCHAR
STARTCHAR U+E186
ENCODING 57734
SWIDTH 1248 0
DWIDTH 13 0
BBX 13 12 -1 -2
BITMAP
0000
0000
0FC0
0CC0
0CC0
0FC0
00C0
00C0
00C0
00C0
0000
0000
ENDCHAR
STARTCHAR U+E187
ENCODING 57735
SWIDTH 1248 0
DWIDTH 13 0
BBX 13 12 -1 -2
BITMAP
0000
0000
0FE0
0EE0
0CE0
0EE0
0EE0
0EE0
0C60
0FE0
0000
0000
ENDCHAR
STARTCHAR U+E188
ENCODING 57736
SWIDTH 1248 0
DWIDTH 13 0
BBX 13 12 -1 -2
BITMAP
0000
0000
0FE0
0C60
0BA0
0F60
0EE0
0DE0
0820
0FE0
0000
0000
ENDCHAR
STARTCHAR U+E189
ENCODING 57737
SWIDTH 1248 0
DWIDTH 13 0
BBX 13 12 -1 -2
BITMAP
0000
0000
0FE0
0C60
0BA0
0E60
0FA0
0BA0
0C60
0FE0
0000
0000
ENDCHAR
STARTCHAR U+E18A
ENCODING 57738
SWIDTH 1248 0
DWIDTH 13 0
BBX 13 12 -1 -2
BITMAP
0000
0000
0FE0
0F60
0E60
0D60
0820
0F60
0F60
0FE0
0000
0000
ENDCHAR
STARTCHAR U+E18B
ENCODING 57739
SWIDTH 1248 0
DWIDTH 13 0
BBX 13 12 -1 -2
BITMAP
0000
0000
0FE0
0820
0BE0
0860
0FA0
0BA0
0C60
0FE0
0000
0000
ENDCHAR
STARTCHAR U+E18C
ENCODING 57740
SWIDTH 1248 0
DWIDTH 13 0
BBX 13 12 -1 -2
BITMAP
0000
0000
0FE0
0C60
0BE0
0860
0BA0
0BA0
0C60
0FE0
0000
0000
ENDCHAR
STARTCHAR U+E18D
ENCODING 57741
SWIDTH 1248 0
DWIDTH 13 0
BBX 13 12 -1 -2
BITMAP
0000
0000
0FE0
0820
0FA0
0F60
0F60
0EE0
0EE0
0FE0
0000
0000
ENDCHAR
STARTCHAR U+E18E
ENCODING 57742
SWIDTH 1248 0
DWIDTH 13 0
BBX 13 12 -1 -2
BITMAP
0000
0000
0FE0
0C60
0BA0
0C60
0BA0
0BA0
0C60
0FE0
0000
0000
ENDCHAR
STARTCHAR U+E18F
ENCODING 57743
SWIDTH 1248 0
DWIDTH 13 0
BBX 13 12 -1 -2
BITMAP
0000
0000
0FE0
0C60
0BA0
0BA0
0C20
0FA0
0C60
0FE0
0000
0000
ENDCHAR
STARTCHAR U+E190
ENCODING 57744
SWIDTH 1248 0
DWIDTH 13 0
BBX 13 12 -1 -2
BITMAP
0000
0000
0000
0000
0000
0300
0780
0780
0300
0000
0000
0000
ENDCHAR
STARTCHAR U+E191
ENCODING 57745
SWIDTH 1248 0
DWIDTH 13 0
BBX 13 12 -1 -2
BITMAP
0000
0000
0000
0000
0300
0780
0780
0300
0000
0000
0000
0000
ENDCHAR
STARTCHAR U+E192
ENCODING 57746
SWIDTH 1248 0
DWIDTH 13 0
BBX 13 12 -1 -2
BITMAP
0000
0000
0000
0000
0300
0300
0000
0300
0300
0000
0000
0000
ENDCHAR
STARTCHAR U+E193
ENCODING 57747
SWIDTH 1248 0
DWIDTH 13 0
BBX 13 12 -1 -2
BITMAP
0000
0000
0000
0300
0300
0000
0000
0300
0300
0000
0000
0000
ENDCHAR
STARTCHAR U+E194
ENCODING 57748
SWIDTH 1248 0
DWIDTH 13 0
BBX 13 12 -1 -2
BITMAP
0000
0000
0000
0000
0CC0
0CC0
0000
0CC0
0CC0
0000
0000
0000
ENDCHAR
STARTCHAR U+E195
ENCODING 57749
SWIDTH 1248 0
DWIDTH 13 0
BBX 13 12 -1 -2
BITMAP
0000
0000
0000
0CC0
0CC0
0000
0000
0CC0
0CC0
0000
0000
0000
ENDCHAR
STARTCHAR U+E196
ENCODING 57750
SWIDTH 1248 0
DWIDTH 13 0
BBX 13 12 -1 -2
BITMAP
0000
0000
0CC0
0CC0
0000
0CC0
0CC0
0000
0CC0
0CC0
0000
0000
ENDCHAR
STARTCHAR char57751
ENCODING 57751
SWIDTH 1248 0
DWIDTH 13 0
BBX 13 12 -1 -2
BITMAP
0000
0000
00A0
00A0
0AE0
0E40
0E40
0440
0FC0
0E40
0000
0000
ENDCHAR
STARTCHAR char57752
ENCODING 57752
SWIDTH 1248 0
DWIDTH 13 0
BBX 13 12 -1 -2
BITMAP
0000
0000
0040
11A0
0EA0
0EE0
0E40
0440
0FC0
0E40
0000
0000
ENDCHAR
STARTCHAR char57753
ENCODING 57753
SWIDTH 1248 0
DWIDTH 13 0
BBX 13 12 -1 -2
BITMAP
0000
0000
00A0
11A0
0EE0
0E40
0E40
0440
0FC0
0E40
0000
0000
ENDCHAR
STARTCHAR char57754
ENCODING 57754
SWIDTH 1248 0
DWIDTH 13 0
BBX 13 12 -1 -2
BITMAP
0000
0000
1020
1020
1FE0
0B40
1B60
1FE0
0840
0FC0
0000
0000
ENDCHAR
STARTCHAR char57755
ENCODING 57755
SWIDTH 1248 0
DWIDTH 13 0
BBX 13 12 -1 -2
BITMAP
0000
0000
0FC0
1FE0
1FE0
1FE0
1FC0
1800
1800
0C00
0000
0000
ENDCHAR
STARTCHAR char57756
ENCODING 57756
SWIDTH 1248 0
DWIDTH 13 0
BBX 13 12 -1 -2
BITMAP
0000
0000
1F00
1100
13E0
1E20
0620
07E0
0480
1FE0
0000
0000
ENDCHAR
STARTCHAR char57757
ENCODING 57757
SWIDTH 1248 0
DWIDTH 13 0
BBX 13 12 -1 -2
BITMAP
0000
0000
0840
0480
0FC0
0B40
1FE0
14A0
17A0
0480
0000
0000
ENDCHAR
STARTCHAR char57758
ENCODING 57758
SWIDTH 1248 0
DWIDTH 13 0
BBX 13 12 -1 -2
BITMAP
0000
0000
1FE0
1FE0
0300
0300
1FE0
1B60
1860
1FE0
0000
0000
ENDCHAR
STARTCHAR char57759
ENCODING 57759
SWIDTH 1248 0
DWIDTH 13 0
BBX 13 12 -1 -2
BITMAP
0000
0000
0FC0
1FE0
1FE0
1FE0
0FE0
00C0
0080
0100
0000
0000
ENDCHAR
STARTCHAR char57760
ENCODING 57760
SWIDTH 1248 0
DWIDTH 13 0
BBX 13 12 -1 -2
BITMAP
0000
0000
0780
0CC0
1EE0
1EA0
14A0
14E0
09C0
0780
0000
0000
ENDCHAR
STARTCHAR char57761
ENCODING 57761
SWIDTH 1248 0
DWIDTH 13 0
BBX 13 12 -1 -2
BITMAP
0000
0000
0FC0
1FE0
1020
1420
1220
1420
1020
0FC0
0000
0000
ENDCHAR
STARTCHAR char57762
ENCODING 57762
SWIDTH 1248 0
DWIDTH 13 0
BBX 13 12 -1 -2
BITMAP
0000
0000
0FC0
1FE0
1020
17A0
1020
17A0
1020
0FC0
0000
0000
ENDCHAR
STARTCHAR char57763
ENCODING 57763
SWIDTH 1248 0
DWIDTH 13 0
BBX 13 12 -1 -2
BITMAP
0000
0000
0FC0
1FE0
1020
14A0
1020
17A0
1020
0FC0
0000
0000
ENDCHAR
STARTCHAR char57764
ENCODING 57764
SWIDTH 1248 0
DWIDTH 13 0
BBX 13 12 -1 -2
BITMAP
0000
0000
1EE0
1EE0
1E00
00E0
1EE0
1E00
1EE0
1EE0
0000
0000
ENDCHAR
STARTCHAR char57765
ENCODING 57765
SWIDTH 1248 0
DWIDTH 13 0
BBX 13 12 -1 -2
BITMAP
0000
0000
1DE0
1DE0
1DE0
1DE0
0000
1B60
1B60
1B60
0000
0000
ENDCHAR
STARTCHAR char57766
ENCODING 57766
SWIDTH 1248 0
DWIDTH 13 0
BBX 13 12 -1 -2
BITMAP
0000
0000
07E0
07E0
0420
0420
0420
0420
1CE0
1CE0
0000
0000
ENDCHAR
STARTCHAR char57767
ENCODING 57767
SWIDTH 1248 0
DWIDTH 13 0
BBX 13 12 -1 -2
BITMAP
0000
0000
0FC0
1FE0
1FE0
1FE0
1FE0
0FC0
0180
0300
0000
0000
ENDCHAR
STARTCHAR char57768
ENCODING 57768
SWIDTH 1248 0
DWIDTH 13 0
BBX 13 12 -1 -2
BITMAP
0000
0000
0000
1FF0
17D0
1BB0
1D70
1AB0
17D0
1FF0
0000
0000
ENDCHAR
STARTCHAR char57769
ENCODING 57769
SWIDTH 1248 0
DWIDTH 13 0
BBX 13 12 -1 -2
BITMAP
0800
0C00
0E00
0F00
0F80
0FC0
0FC0
0F80
0F00
0E00
0C00
0800
ENDCHAR
STARTCHAR char57770
ENCODING 57770
SWIDTH 1248 0
DWIDTH 13 0
BBX 13 12 -1 -2
BITMAP
0800
0400
0200
0100
0080
0040
0040
0080
0100
0200
0400
0800
ENDCHAR
STARTCHAR char57771
ENCODING 57771
SWIDTH 1248 0
DWIDTH 13 0
BBX 13 12 -1 -2
BITMAP
0040
00C0
01C0
03C0
07C0
0FC0
0FC0
07C0
03C0
01C0
00C0
0040
ENDCHAR
STARTCHAR char57772
ENCODING 57772
SWIDTH 1248 0
DWIDTH 13 0
BBX 13 12 -1 -2
BITMAP
0040
0080
0100
0200
0400
0800
0800
0400
0200
0100
0080
0040
ENDCHAR
STARTCHAR char57773
ENCODING 57773
SWIDTH 1248 0
DWIDTH 13 0
BBX 13 12 -1 -2
BITMAP
0400
0600
0700
0780
07C0
07C0
07C0
07C0
07C0
07C0
07C0
07C0
ENDCHAR
STARTCHAR char57774
ENCODING 57774
SWIDTH 1248 0
DWIDTH 13 0
BBX 13 12 -1 -2
BITMAP
07C0
07C0
07C0
07C0
07C0
07C0
07C0
07C0
03C0
01C0
00C0
0040
ENDCHAR
STARTCHAR char57775
ENCODING 57775
SWIDTH 1248 0
DWIDTH 13 0
BBX 13 12 -1 -2
BITMAP
0000
0000
0000
0FE0
1010
07C0
0820
0380
0000
0100
0000
0000
ENDCHAR
STARTCHAR char57776
ENCODING 57776
SWIDTH 1248 0
DWIDTH 13 0
BBX 13 12 -1 -2
BITMAP
0000
0000
0780
0FC0
0840
0B40
0B40
0B40
0840
0FC0
0000
0000
ENDCHAR
STARTCHAR char57777
ENCODING 57777
SWIDTH 1248 0
DWIDTH 13 0
BBX 13 12 -1 -2
BITMAP
0100
0100
0100
0100
0100
0100
0100
0100
0100
0100
0100
0100
ENDCHAR
STARTCHAR char57778
ENCODING 57778
SWIDTH 1248 0
DWIDTH 13 0
BBX 13 12 -1 -2
BITMAP
0000
0000
1FE0
03E0
01E0
0DE0
1EC0
1E00
1F00
1FE0
0000
0000
ENDCHAR
STARTCHAR char57779
ENCODING 57779
SWIDTH 1248 0
DWIDTH 13 0
BBX 13 12 -1 -2
BITMAP
0000
0000
0180
0280
04E0
1C80
1C80
04E0
0280
0180
0000
0000
ENDCHAR
STARTCHAR char57780
ENCODING 57780
SWIDTH 1248 0
DWIDTH 13 0
BBX 13 12 -1 -2
BITMAP
0000
0000
0100
0100
0380
0380
06C0
0440
0EE0
0820
0000
0000
ENDCHAR
STARTCHAR char57781
ENCODING 57781
SWIDTH 1248 0
DWIDTH 13 0
BBX 13 12 -1 -2
BITMAP
0000
0000
0300
0A80
06C0
0380
0380
06C0
0A80
0300
0000
0000
ENDCHAR
STARTCHAR char57782
ENCODING 57782
SWIDTH 1248 0
DWIDTH 13 0
BBX 13 12 -1 -2
BITMAP
0000
0000
1860
0480
0300
1B60
0780
0FC0
17A0
1320
0000
0000
ENDCHAR
STARTCHAR char57783
ENCODING 57783
SWIDTH 1248 0
DWIDTH 13 0
BBX 13 12 -1 -2
BITMAP
0000
0000
1860
0480
0480
1B60
0780
0FC0
1320
0840
0000
0000
ENDCHAR
STARTCHAR char57784
ENCODING 57784
SWIDTH 1248 0
DWIDTH 13 0
BBX 13 12 -1 -2
BITMAP
0000
0000
1020
1860
17A0
1FE0
1320
1FE0
0FC0
17A0
0000
0000
ENDCHAR
STARTCHAR char57785
ENCODING 57785
SWIDTH 1248 0
DWIDTH 13 0
BBX 13 12 -1 -2
BITMAP
0000
0000
0780
0F40
1EE0
1DE0
1C20
1FE0
0FC0
0780
0000
0000
ENDCHAR
STARTCHAR char57786
ENCODING 57786
SWIDTH 1248 0
DWIDTH 13 0
BBX 13 12 -1 -2
BITMAP
0000
0000
1020
1BC0
0C40
0E40
0740
0F80
1DC0
1860
0000
0000
ENDCHAR
STARTCHAR char57787
ENCODING 57787
SWIDTH 1248 0
DWIDTH 13 0
BBX 13 12 -1 -2
BITMAP
0000
0000
1FE0
1020
1020
1020
17A0
15A0
15A0
0FE0
0000
0000
ENDCHAR
STARTCHAR char57788
ENCODING 57788
SWIDTH 1248 0
DWIDTH 13 0
BBX 13 12 -1 -2
BITMAP
0000
0000
0780
0840
1020
1020
1020
1020
0840
0780
0000
0000
ENDCHAR
STARTCHAR char57789
ENCODING 57789
SWIDTH 1248 0
DWIDTH 13 0
BBX 13 12 -1 -2
BITMAP
0000
0000
0000
1B00
0800
0800
0420
13E0
0800
0000
0000
0000
ENDCHAR
STARTCHAR char57790
ENCODING 57790
SWIDTH 1248 0
DWIDTH 13 0
BBX 13 12 -1 -2
BITMAP
0000
0000
0000
0000
0360
0040
0040
1080
1F20
0040
0000
0000
ENDCHAR
STARTCHAR char57791
ENCODING 57791
SWIDTH 1248 0
DWIDTH 13 0
BBX 13 12 -1 -2
BITMAP
0000
0000
1020
1860
17A0
1FE0
1320
1B60
0FC0
0300
0000
0000
ENDCHAR
STARTCHAR char57792
ENCODING 57792
SWIDTH 1248 0
DWIDTH 13 0
BBX 13 12 -1 -2
BITMAP
0000
0000
0C40
1320
07A0
0CC0
0CC0
1780
1320
08C0
0000
0000
ENDCHAR
STARTCHAR char57793
ENCODING 57793
SWIDTH 1248 0
DWIDTH 13 0
BBX 13 12 -1 -2
BITMAP
0000
0000
11E0
1B40
1780
1CC0
0CE0
07A0
0B60
1E20
0000
0000
ENDCHAR
STARTCHAR char57794
ENCODING 57794
SWIDTH 1248 0
DWIDTH 13 0
BBX 13 12 -1 -2
BITMAP
0000
0000
0780
0FC0
1FE0
1FE0
1FE0
1FE0
0FC0
0780
0000
0000
ENDCHAR
STARTCHAR char57795
ENCODING 57795
SWIDTH 1248 0
DWIDTH 13 0
BBX 13 12 -1 -2
BITMAP
0000
0000
0780
0E40
1E20
1E20
1E20
1E20
0E40
0780
0000
0000
ENDCHAR
STARTCHAR char57796
ENCODING 57796
SWIDTH 1248 0
DWIDTH 13 0
BBX 13 12 -1 -2
BITMAP
0000
0000
0780
0CC0
1FE0
1CE0
1CE0
1CE0
0CC0
0780
0000
0000
ENDCHAR
STARTCHAR char57797
ENCODING 57797
SWIDTH 1248 0
DWIDTH 13 0
BBX 13 12 -1 -2
BITMAP
0000
0000
1FE0
1CE0
1FE0
1CE0
1CE0
1CE0
1CE0
1FE0
0000
0000
ENDCHAR
STARTCHAR char57798
ENCODING 57798
SWIDTH 1248 0
DWIDTH 13 0
BBX 13 12 -1 -2
BITMAP
0000
0000
0EE0
0EE0
0EE0
0820
0FE0
0FE0
0FE0
07C0
0000
0000
ENDCHAR
STARTCHAR char57799
ENCODING 57799
SWIDTH 1248 0
DWIDTH 13 0
BBX 13 12 -1 -2
BITMAP
0000
0000
1800
1E00
0F00
0F80
0780
0340
00A0
0060
0000
0000
ENDCHAR
STARTCHAR char57800
ENCODING 57800
SWIDTH 1248 0
DWIDTH 13 0
BBX 13 12 -1 -2
BITMAP
0000
0000
0780
0840
1020
1020
1FE0
0780
0780
0780
0000
0000
ENDCHAR
STARTCHAR char57801
ENCODING 57801
SWIDTH 1248 0
DWIDTH 13 0
BBX 13 12 -1 -2
BITMAP
0000
0000
0640
1920
1920
1D20
1D20
1920
1920
0640
0000
0000
ENDCHAR
STARTCHAR char57802
ENCODING 57802
SWIDTH 1248 0
DWIDTH 13 0
BBX 13 12 -1 -2
BITMAP
0000
0000
0E00
1900
1080
1040
0820
0420
0260
01C0
0000
0000
ENDCHAR
STARTCHAR char57803
ENCODING 57803
SWIDTH 1248 0
DWIDTH 13 0
BBX 13 12 -1 -2
BITMAP
0000
0000
01C0
0220
0460
08E0
0FC0
0980
1200
1C00
0000
0000
ENDCHAR
STARTCHAR char57804
ENCODING 57804
SWIDTH 1248 0
DWIDTH 13 0
BBX 13 12 -1 -2
BITMAP
0000
0000
0040
0120
04A0
12A0
12A0
04A0
0120
0040
0000
0000
ENDCHAR
STARTCHAR char57805
ENCODING 57805
SWIDTH 1248 0
DWIDTH 13 0
BBX 13 12 -1 -2
BITMAP
0000
0AA0
0AA0
1FF0
1010
1AB0
1010
1AB0
1010
1FF0
0000
0000
ENDCHAR
STARTCHAR code
ENCODING 57806
SWIDTH 1248 0
DWIDTH 13 0
BBX 13 12 -1 -2
BITMAP
0000
0800
0C00
0600
0600
0300
0780
0D80
0CC0
1860
0000
0000
ENDCHAR
STARTCHAR char57807
ENCODING 57807
SWIDTH 1248 0
DWIDTH 13 0
BBX 13 12 -1 -2
BITMAP
0000
0F80
0880
08E0
0820
0820
0820
0820
0820
0FE0
0000
0000
ENDCHAR
STARTCHAR images
ENCODING 57808
SWIDTH 1248 0
DWIDTH 13 0
BBX 13 12 -1 -2
BITMAP
0000
0000
0000
7FF8
4008
4028
5178
7B88
7FD8
7FF8
0000
0000
ENDCHAR
STARTCHAR media
ENCODING 57809
SWIDTH 1248 0
DWIDTH 13 0
BBX 13 12 -1 -2
BITMAP
0000
3FF8
2008
2208
2308
2388
2308
2208
2008
3FF8
0000
0000
ENDCHAR
STARTCHAR char57810
ENCODING 57810
SWIDTH 1248 0
DWIDTH 13 0
BBX 13 12 -1 -2
BITMAP
0000
0000
0000
3FF8
2208
2308
2388
2308
2208
3FF8
0000
0000
ENDCHAR
STARTCHAR git
ENCODING 57811
SWIDTH 1248 0
DWIDTH 13 0
BBX 13 12 -1 -2
BITMAP
0000
3030
3FF0
3FF0
7FF8
7FF8
6018
6CD8
6CD8
3030
0FC0
0000
ENDCHAR
STARTCHAR punk_small
ENCODING 57812
SWIDTH 1248 0
DWIDTH 13 0
BBX 13 12 -1 -2
BITMAP
0000
0380
07C0
0F20
1010
36D8
3018
3ED8
16D0
06C0
0380
0000
ENDCHAR
STARTCHAR char57813
ENCODING 57813
SWIDTH 1248 0
DWIDTH 13 0
BBX 13 12 -1 -2
BITMAP
0000
1F80
1EC0
1EE0
1E10
1FF0
1830
1FF0
1830
1FF0
1FF0
0000
ENDCHAR
STARTCHAR folder
ENCODING 57814
SWIDTH 1248 0
DWIDTH 13 0
BBX 13 12 -1 -2
BITMAP
0000
3C00
3FF0
23F0
2010
2010
2010
2010
2010
3FF0
0000
0000
ENDCHAR
STARTCHAR monitor
ENCODING 57815
SWIDTH 1248 0
DWIDTH 13 0
BBX 13 12 -1 -2
BITMAP
0000
0000
3FF0
2010
2010
2010
2010
3FF0
3FF0
0780
0780
0000
ENDCHAR
STARTCHAR laptop
ENCODING 57816
SWIDTH 1248 0
DWIDTH 13 0
BBX 13 12 -1 -2
BITMAP
0000
0000
3FF0
2010
2010
2010
2010
1FE0
2010
7CF8
7FF8
0000
ENDCHAR
STARTCHAR folder_open
ENCODING 57817
SWIDTH 1248 0
DWIDTH 13 0
BBX 13 12 -1 -2
BITMAP
0000
0000
3C00
27C0
2020
27F0
2808
3010
2030
3FE0
0000
0000
ENDCHAR
STARTCHAR image
ENCODING 57818
SWIDTH 1248 0
DWIDTH 13 0
BBX 13 12 -1 -2
BITMAP
0000
7FF8
5008
7848
51C8
4BE8
5FE8
7FF8
4008
7FF8
0000
0000
ENDCHAR
STARTCHAR tag
ENCODING 57819
SWIDTH 1248 0
DWIDTH 13 0
BBX 13 12 -1 -2
BITMAP
0000
0000
1E00
1300
1380
1FC0
0FE0
07E0
03C0
0180
0000
0000
ENDCHAR
STARTCHAR char57820
ENCODING 57820
SWIDTH 1248 0
DWIDTH 13 0
BBX 13 12 -1 -2
BITMAP
0000
0000
3D80
26C0
2760
3FB0
1FD8
0FD8
07B0
0360
0040
0000
ENDCHAR
STARTCHAR film_large
ENCODING 57821
SWIDTH 1248 0
DWIDTH 13 0
BBX 13 12 -1 -2
BITMAP
0000
7FF8
5028
7038
5028
7FF8
5028
7038
5028
7FF8
0000
0000
ENDCHAR
STARTCHAR barcode
ENCODING 57822
SWIDTH 1248 0
DWIDTH 13 0
BBX 13 12 -1 -2
BITMAP
0000
7FF8
5AA8
5AA8
5AA8
5AA8
5AA8
5AA8
5AA8
7FF8
0000
0000
ENDCHAR
STARTCHAR book
ENCODING 57823
SWIDTH 1248 0
DWIDTH 13 0
BBX 13 12 -1 -2
BITMAP
0000
0000
07F0
07F0
0C30
0FF0
1870
1FF0
1FE0
1020
0FC0
0000
ENDCHAR
STARTCHAR char57824
ENCODING 57824
SWIDTH 1248 0
DWIDTH 13 0
BBX 13 12 -1 -2
BITMAP
0000
0000
3C00
3FF0
3FF0
3FF0
3FF0
3FF0
3FF0
3FF0
0000
0000
ENDCHAR
STARTCHAR char57825
ENCODING 57825
SWIDTH 1248 0
DWIDTH 13 0
BBX 13 12 -1 -2
BITMAP
0000
0000
3C00
3FC0
3FE0
3820
37F8
2FF0
1FE0
3FC0
0000
0000
ENDCHAR
STARTCHAR char57826
ENCODING 57826
SWIDTH 1248 0
DWIDTH 13 0
BBX 13 12 -1 -2
BITMAP
0000
0FE0
0FE0
0FE0
0FE0
0FE0
0FE0
0EE0
0C60
0820
0000
0000
ENDCHAR
STARTCHAR char57827
ENCODING 57827
SWIDTH 1248 0
DWIDTH 13 0
BBX 13 12 -1 -2
BITMAP
0000
0FE0
0820
0820
0820
0820
0920
0AA0
0C60
0820
0000
0000
ENDCHAR
STARTCHAR drop
ENCODING 57828
SWIDTH 1248 0
DWIDTH 13 0
BBX 13 12 -1 -2
BITMAP
0200
0700
0F80
0F80
1FC0
1BC0
1BC0
1BC0
0F80
0700
0000
0000
ENDCHAR
STARTCHAR pen
ENCODING 57829
SWIDTH 1248 0
DWIDTH 13 0
BBX 13 12 -1 -2
BITMAP
0030
0078
00F8
0170
03A0
07C0
0F80
1F00
2E00
3400
3800
0000
ENDCHAR
STARTCHAR char57830
ENCODING 57830
SWIDTH 1248 0
DWIDTH 13 0
BBX 13 12 -1 -2
BITMAP
0000
07C0
0C60
1FF0
0820
0AA0
0AA0
0AA0
0820
0FE0
0000
0000
ENDCHAR
STARTCHAR camera
ENCODING 57831
SWIDTH 1248 0
DWIDTH 13 0
BBX 13 12 -1 -2
BITMAP
0000
0000
3FF0
2410
3FF0
2CF0
3B70
3B70
3CF0
3FF0
0000
0000
ENDCHAR
STARTCHAR punk_large
ENCODING 57832
SWIDTH 1248 0
DWIDTH 13 0
BBX 13 12 -1 -2
BITMAP
0780
0FC0
1F20
2010
6CD8
6018
7CD8
6CD8
2CD0
0CC0
0780
0000
ENDCHAR
STARTCHAR reddit
ENCODING 57833
SWIDTH 1248 0
DWIDTH 13 0
BBX 13 12 -1 -2
BITMAP
01F0
0170
0300
3CF0
5028
6018
4CC8
4CC8
4008
2790
1860
0780
ENDCHAR
STARTCHAR hackernews
ENCODING 57834
SWIDTH 1248 0
DWIDTH 13 0
BBX 13 12 -1 -2
BITMAP
0000
0000
0FC0
0780
1320
1860
1CE0
1CE0
1CE0
1CE0
0000
0000
ENDCHAR
STARTCHAR youtube
ENCODING 57835
SWIDTH 1248 0
DWIDTH 13 0
BBX 13 12 -1 -2
BITMAP
0000
0000
1FE0
3FF0
3DF0
3CF0
3CF0
3DF0
3FF0
1FE0
0000
0000
ENDCHAR
STARTCHAR char57836
ENCODING 57836
SWIDTH 1248 0
DWIDTH 13 0
BBX 13 12 -1 -2
BITMAP
0000
0000
2000
3000
1800
0C00
0C00
1800
3000
21F8
0000
0000
ENDCHAR
STARTCHAR char57837
ENCODING 57837
SWIDTH 1248 0
DWIDTH 13 0
BBX 13 12 -1 -2
BITMAP
0000
1F80
10C0
10A0
10F0
1010
17D0
1010
17D0
1010
1FF0
0000
ENDCHAR
STARTCHAR find
ENCODING 57838
SWIDTH 1248 0
DWIDTH 13 0
BBX 13 12 -1 -2
BITMAP
0000
0E00
1100
2080
2080
2080
1100
0E80
0040
0020
0010
0000
ENDCHAR
STARTCHAR terminal_big
ENCODING 57839
SWIDTH 1248 0
DWIDTH 13 0
BBX 13 12 -1 -2
BITMAP
0000
0000
3FF0
3FF0
2010
2810
2410
29D0
2010
3FF0
0000
0000
ENDCHAR
STARTCHAR char57840
ENCODING 57840
SWIDTH 1248 0
DWIDTH 13 0
BBX 13 12 -1 -2
BITMAP
0000
0330
07B0
0CF0
1870
3030
6018
6798
2490
2490
3CF0
0000
ENDCHAR
STARTCHAR char57841
ENCODING 57841
SWIDTH 1248 0
DWIDTH 13 0
BBX 13 12 -1 -2
BITMAP
0000
0000
0000
3FF0
0000
3FF0
0000
3FF0
0000
3FF0
0000
0000
ENDCHAR
STARTCHAR char57842
ENCODING 57842
SWIDTH 1248 0
DWIDTH 13 0
BBX 13 12 -1 -2
BITMAP
0000
0000
0000
2FF0
0000
2FF0
0000
2FF0
0000
2FF0
0000
0000
ENDCHAR
STARTCHAR char57843
ENCODING 57843
SWIDTH 1248 0
DWIDTH 13 0
BBX 13 12 -1 -2
BITMAP
0000
0000
0000
3FC0
0000
3FE0
0000
3FC0
0000
3FF0
0000
0000
ENDCHAR
STARTCHAR char57844
ENCODING 57844
SWIDTH 1248 0
DWIDTH 13 0
BBX 13 12 -1 -2
BITMAP
0000
0000
0000
0FF0
0000
1FF0
0000
0FF0
0000
3FF0
0000
0000
ENDCHAR
STARTCHAR char57845
ENCODING 57845
SWIDTH 1248 0
DWIDTH 13 0
BBX 13 12 -1 -2
BITMAP
0000
0000
0000
3F90
3FB0
3FF0
3FF0
3FF0
3FB0
3F90
0000
0000
ENDCHAR
STARTCHAR char57846
ENCODING 57846
SWIDTH 1248 0
DWIDTH 13 0
BBX 13 12 -1 -2
BITMAP
0F80
0F80
0D80
0D80
0F80
0F80
1FC0
1FC0
0200
0200
0200
0200
ENDCHAR
STARTCHAR char57847
ENCODING 57847
SWIDTH 1248 0
DWIDTH 13 0
BBX 13 12 -1 -2
BITMAP
1FF0
1F10
1F10
1F10
1F10
1F10
1F10
1F30
0F60
07C0
0380
0100
ENDCHAR
STARTCHAR char57848
ENCODING 57848
SWIDTH 1248 0
DWIDTH 13 0
BBX 13 12 -1 -2
BITMAP
0000
0000
0000
0080
0180
0380
0780
0F80
1F80
0000
0000
0000
ENDCHAR
STARTCHAR char57849
ENCODING 57849
SWIDTH 1248 0
DWIDTH 13 0
BBX 13 12 -1 -2
BITMAP
0000
0000
0000
1000
1800
1C00
1E00
1F00
1F80
0000
0000
0000
ENDCHAR
STARTCHAR char57850
ENCODING 57850
SWIDTH 1248 0
DWIDTH 13 0
BBX 13 12 -1 -2
BITMAP
0000
0000
0000
1F80
1F00
1E00
1C00
1800
1000
0000
0000
0000
ENDCHAR
STARTCHAR char57851
ENCODING 57851
SWIDTH 1248 0
DWIDTH 13 0
BBX 13 12 -1 -2
BITMAP
0000
0000
0000
1F80
0F80
0780
0380
0180
0080
0000
0000
0000
ENDCHAR
STARTCHAR char57852
ENCODING 57852
SWIDTH 1248 0
DWIDTH 13 0
BBX 13 12 -1 -2
BITMAP
0000
0000
0000
0500
0500
0D80
0500
0D80
0500
0500
0000
0000
ENDCHAR
STARTCHAR char57853
ENCODING 57853
SWIDTH 1248 0
DWIDTH 13 0
BBX 13 12 -1 -2
BITMAP
0000
0380
0FE0
0820
0820
0820
0820
0820
0820
0820
0FE0
0000
ENDCHAR
STARTCHAR char57854
ENCODING 57854
SWIDTH 1248 0
DWIDTH 13 0
BBX 13 12 -1 -2
BITMAP
0000
0380
0FE0
0820
0820
0820
0BA0
0BA0
0BA0
0820
0FE0
0000
ENDCHAR
STARTCHAR char57855
ENCODING 57855
SWIDTH 1248 0
DWIDTH 13 0
BBX 13 12 -1 -2
BITMAP
0000
0380
0FE0
0820
0BA0
0BA0
0BA0
0BA0
0BA0
0820
0FE0
0000
ENDCHAR
STARTCHAR char57856
ENCODING 57856
SWIDTH 1248 0
DWIDTH 13 0
BBX 13 12 -1 -2
BITMAP
0000
0380
0FE0
0D60
0D60
0820
0820
0C60
0EE0
0EE0
0FE0
0000
ENDCHAR
STARTCHAR char57857
ENCODING 57857
SWIDTH 1248 0
DWIDTH 13 0
BBX 13 12 -1 -2
BITMAP
0000
0380
0FE0
0F60
0EE0
0CE0
0820
0E60
0EE0
0DE0
0FE0
0000
ENDCHAR
STARTCHAR char57858
ENCODING 57858
SWIDTH 1248 0
DWIDTH 13 0
BBX 13 12 -1 -2
BITMAP
0000
0000
0080
0980
0580
0A80
0D00
0E80
0340
01A0
0080
0000
ENDCHAR
STARTCHAR char57859
ENCODING 57859
SWIDTH 1248 0
DWIDTH 13 0
BBX 13 12 -1 -2
BITMAP
0000
0000
0090
01A0
0380
0F80
0FB0
0F80
0380
01A0
0090
0000
ENDCHAR
STARTCHAR char57860
ENCODING 57860
SWIDTH 1248 0
DWIDTH 13 0
BBX 13 12 -1 -2
BITMAP
0000
0000
0080
0180
0380
0F80
0F80
0F80
0380
0180
0080
0000
ENDCHAR
STARTCHAR char57861
ENCODING 57861
SWIDTH 1248 0
DWIDTH 13 0
BBX 13 12 -1 -2
BITMAP
0000
0000
0000
07C0
07C0
0440
07C0
0440
1DC0
1DC0
0000
0000
ENDCHAR
STARTCHAR char57862
ENCODING 57862
SWIDTH 1248 0
DWIDTH 13 0
BBX 13 12 -1 -2
BITMAP
0000
0000
0000
0000
0900
0D80
0FC0
0D80
0900
0000
0000
0000
ENDCHAR
STARTCHAR char57863
ENCODING 57863
SWIDTH 1248 0
DWIDTH 13 0
BBX 13 12 -1 -2
BITMAP
0000
0000
0000
0000
0240
06C0
0FC0
06C0
0240
0000
0000
0000
ENDCHAR
STARTCHAR char57864
ENCODING 57864
SWIDTH 1248 0
DWIDTH 13 0
BBX 13 12 -1 -2
BITMAP
0000
0000
0000
0000
0100
0380
07C0
0100
0380
07C0
0000
0000
ENDCHAR
STARTCHAR char57865
ENCODING 57865
SWIDTH 1248 0
DWIDTH 13 0
BBX 13 12 -1 -2
BITMAP
0000
0000
0000
0000
07C0
0380
0100
07C0
0380
0100
0000
0000
ENDCHAR
STARTCHAR char57866
ENCODING 57866
SWIDTH 1248 0
DWIDTH 13 0
BBX 13 12 -1 -2
BITMAP
0000
0000
0000
0000
1240
1B40
1FC0
1B40
1240
0000
0000
0000
ENDCHAR
STARTCHAR char57867
ENCODING 57867
SWIDTH 1248 0
DWIDTH 13 0
BBX 13 12 -1 -2
BITMAP
0000
0000
0000
0000
1240
16C0
1FC0
16C0
1240
0000
0000
0000
ENDCHAR
STARTCHAR char57868
ENCODING 57868
SWIDTH 1248 0
DWIDTH 13 0
BBX 13 12 -1 -2
BITMAP
0000
0000
0000
0000
0940
0D40
0F40
0D40
0940
0000
0000
0000
ENDCHAR
STARTCHAR berry_percent
ENCODING 57869
SWIDTH 1248 0
DWIDTH 13 0
BBX 13 12 -1 -2
BITMAP
0000
0000
0000
0240
0540
0280
0100
0280
0540
0480
0000
0000
ENDCHAR
STARTCHAR char57870
ENCODING 57870
SWIDTH 1248 0
DWIDTH 13 0
BBX 13 12 -1 -2
BITMAP
0000
0000
0000
0000
0700
0FC0
3F00
3F00
0FC0
0700
0000
0000
ENDCHAR
STARTCHAR char57871
ENCODING 57871
SWIDTH 1248 0
DWIDTH 13 0
BBX 13 12 -1 -2
BITMAP
0000
0000
0000
0018
0718
0FD8
3F18
3F18
0FC0
0718
0018
0000
ENDCHAR
STARTCHAR char57872
ENCODING 57872
SWIDTH 1248 0
DWIDTH 13 0
BBX 13 12 -1 -2
BITMAP
0000
0E00
3F80
2080
2080
2080
2080
2080
2080
2080
2080
3F80
ENDCHAR
STARTCHAR char57873
ENCODING 57873
SWIDTH 1248 0
DWIDTH 13 0
BBX 13 12 -1 -2
BITMAP
0000
0E00
3F80
2098
2098
2098
2098
2098
2080
2098
2098
3F80
ENDCHAR
STARTCHAR char57874
ENCODING 57874
SWIDTH 1248 0
DWIDTH 13 0
BBX 13 12 -1 -2
BITMAP
0000
0E00
3F80
2098
2098
2098
2098
2098
2880
2C98
2098
3F80
ENDCHAR
STARTCHAR char57875
ENCODING 57875
SWIDTH 1248 0
DWIDTH 13 0
BBX 13 12 -1 -2
BITMAP
0000
0E00
3F80
2080
2080
2880
2C80
2680
2A80
2C80
2080
3F80
ENDCHAR
STARTCHAR char57876
ENCODING 57876
SWIDTH 1248 0
DWIDTH 13 0
BBX 13 12 -1 -2
BITMAP
0000
0E00
3F80
2080
2680
2A80
2C80
2680
2A80
2C80
2080
3F80
ENDCHAR
STARTCHAR char57877
ENCODING 57877
SWIDTH 1248 0
DWIDTH 13 0
BBX 13 12 -1 -2
BITMAP
0000
0000
0100
0200
0600
0C00
0F80
1F00
0300
0600
0400
0800
ENDCHAR
STARTCHAR char57878
ENCODING 57878
SWIDTH 1248 0
DWIDTH 13 0
BBX 13 12 -1 -2
BITMAP
0000
0000
0200
0400
0800
1800
3E00
0C00
0800
1000
2000
0000
ENDCHAR
STARTCHAR char57879
ENCODING 57879
SWIDTH 1248 0
DWIDTH 13 0
BBX 13 12 -1 -2
BITMAP
0000
0000
0000
0000
0000
0000
01B0
00E0
0C40
0CE0
01B0
0000
ENDCHAR
STARTCHAR char57880
ENCODING 57880
SWIDTH 1248 0
DWIDTH 13 0
BBX 13 12 -1 -2
BITMAP
0000
0000
0000
0000
0000
0000
03C0
0420
0180
0180
0000
0000
ENDCHAR
STARTCHAR char57881
ENCODING 57881
SWIDTH 1248 0
DWIDTH 13 0
BBX 13 12 -1 -2
BITMAP
0000
0000
0000
0000
07E0
0810
03C0
0420
0180
0180
0000
0000
ENDCHAR
STARTCHAR char57882
ENCODING 57882
SWIDTH 1248 0
DWIDTH 13 0
BBX 13 12 -1 -2
BITMAP
0000
0000
0FF0
1008
07E0
0810
03C0
0420
0180
0180
0000
0000
ENDCHAR
STARTCHAR char57883
ENCODING 57883
SWIDTH 1248 0
DWIDTH 13 0
BBX 13 12 -1 -2
BITMAP
0000
0000
0000
2000
2000
0000
21B0
20E0
0040
20E0
21B0
0000
ENDCHAR
STARTCHAR char57884
ENCODING 57884
SWIDTH 1248 0
DWIDTH 13 0
BBX 13 12 -1 -2
BITMAP
0000
0000
0000
2000
2000
0000
2000
2000
0000
3800
3800
0000
ENDCHAR
STARTCHAR char57885
ENCODING 57885
SWIDTH 1248 0
DWIDTH 13 0
BBX 13 12 -1 -2
BITMAP
0000
0000
0000
2000
2000
0000
3F00
3F00
0000
3800
3800
0000
ENDCHAR
STARTCHAR char57886
ENCODING 57886
SWIDTH 1248 0
DWIDTH 13 0
BBX 13 12 -1 -2
BITMAP
0000
0000
0000
3FE0
3FE0
0000
3F00
3F00
0000
3800
3800
0000
ENDCHAR
STARTCHAR char57887
ENCODING 57887
SWIDTH 1248 0
DWIDTH 13 0
BBX 13 12 -1 -2
BITMAP
0000
0000
0000
0000
0000
0000
0000
0000
0000
0000
1B60
0000
ENDCHAR
STARTCHAR char57888
ENCODING 57888
SWIDTH 1248 0
DWIDTH 13 0
BBX 13 12 -1 -2
BITMAP
0000
0000
0000
0000
0000
0000
0000
0000
1800
1800
1B60
0000
ENDCHAR
STARTCHAR char57889
ENCODING 57889
SWIDTH 1248 0
DWIDTH 13 0
BBX 13 12 -1 -2
BITMAP
0000
0000
0000
0000
0000
0300
0300
0300
1B00
1B00
1B60
0000
ENDCHAR
STARTCHAR char57890
ENCODING 57890
SWIDTH 1248 0
DWIDTH 13 0
BBX 13 12 -1 -2
BITMAP
0000
0000
0060
0060
0060
0360
0360
0360
1B60
1B60
1B60
0000
ENDCHAR
STARTCHAR char57891
ENCODING 57891
SWIDTH 1248 0
DWIDTH 13 0
BBX 13 12 -1 -2
BITMAP
0000
0000
0FE0
1010
1210
1210
1550
1090
1090
1010
0FE0
0000
ENDCHAR
STARTCHAR char57892
ENCODING 57892
SWIDTH 1248 0
DWIDTH 13 0
BBX 13 12 -1 -2
BITMAP
0000
0000
0FE0
1DF0
1DF0
1DF0
1290
1F70
1F70
1F70
0FE0
0000
ENDCHAR
STARTCHAR char57893
ENCODING 57893
SWIDTH 1248 0
DWIDTH 13 0
BBX 13 12 -1 -2
BITMAP
0000
0000
0820
1FF0
1FF0
1010
1550
1010
1550
1010
1FF0
0000
ENDCHAR
STARTCHAR char57894
ENCODING 57894
SWIDTH 1248 0
DWIDTH 13 0
BBX 13 12 -1 -2
BITMAP
0000
0000
0820
1FF0
1FF0
1010
1010
1010
1010
1010
1FF0
0000
ENDCHAR
STARTCHAR char57895
ENCODING 57895
SWIDTH 1248 0
DWIDTH 13 0
BBX 13 12 -1 -2
BITMAP
0000
0000
2080
7FD8
7FD8
4058
4058
4058
4040
4058
7FD8
0000
ENDCHAR
STARTCHAR char57896
ENCODING 57896
SWIDTH 1248 0
DWIDTH 13 0
BBX 13 12 -1 -2
BITMAP
0000
0000
0000
1FF0
1830
1450
1290
1550
1830
1FF0
0000
0000
ENDCHAR
STARTCHAR char57897
ENCODING 57897
SWIDTH 1248 0
DWIDTH 13 0
BBX 13 12 -1 -2
BITMAP
0000
0000
0000
1FF0
17D0
1BB0
1D70
1AB0
17D0
1FF0
0000
0000
ENDCHAR
STARTCHAR art
ENCODING 57898
SWIDTH 1248 0
DWIDTH 13 0
BBX 13 12 -1 -2
BITMAP
0000
0000
0020
0070
00E0
01C0
0380
0700
0E00
0C00
1000
0000
ENDCHAR
STARTCHAR w_cloud
ENCODING 57899
SWIDTH 1248 0
DWIDTH 13 0
BBX 13 12 -1 -2
BITMAP
0000
0000
0000
0380
07C0
0FE0
0FE0
06C0
0000
0000
0000
0000
ENDCHAR
STARTCHAR w_lightning
ENCODING 57900
SWIDTH 1248 0
DWIDTH 13 0
BBX 13 12 -1 -2
BITMAP
0000
0000
0000
0380
07C0
0FE0
0FE0
06C0
0100
0300
0200
0000
ENDCHAR
STARTCHAR w_rain
ENCODING 57901
SWIDTH 1248 0
DWIDTH 13 0
BBX 13 12 -1 -2
BITMAP
0000
0000
0000
0380
07C0
0FE0
0FE0
06C0
0000
0540
0A80
0000
ENDCHAR
STARTCHAR char57902
ENCODING 57902
SWIDTH 1248 0
DWIDTH 13 0
BBX 13 12 -1 -2
BITMAP
0000
0000
0000
0380
07C0
0FE0
0FE0
06C0
0000
0900
0280
0120
ENDCHAR
STARTCHAR w_hail
ENCODING 57903
SWIDTH 1248 0
DWIDTH 13 0
BBX 13 12 -1 -2
BITMAP
0000
0000
0000
0380
07C0
0FE0
0FE0
06C0
0100
0440
0100
0440
ENDCHAR
STARTCHAR w_morerainidunno
ENCODING 57904
SWIDTH 1248 0
DWIDTH 13 0
BBX 13 12 -1 -2
BITMAP
0000
0000
0000
0380
07C0
0FE0
0FE0
06C0
0000
0440
0100
0000
ENDCHAR
STARTCHAR char57905
ENCODING 57905
SWIDTH 1248 0
DWIDTH 13 0
BBX 13 12 -1 -2
BITMAP
0000
00A0
02C0
0730
0E20
0F30
0FC0
05A0
0000
0000
0000
0000
ENDCHAR
STARTCHAR w_partlymoon
ENCODING 57906
SWIDTH 1248 0
DWIDTH 13 0
BBX 13 12 -1 -2
BITMAP
0080
0100
0100
0590
0EE0
0F00
0FC0
0580
0000
0000
0000
0000
ENDCHAR
STARTCHAR w_moon
ENCODING 57907
SWIDTH 1248 0
DWIDTH 13 0
BBX 13 12 -1 -2
BITMAP
0000
0000
0000
0400
0800
0800
0C80
0700
0000
0000
0000
0000
ENDCHAR
STARTCHAR w_sun
ENCODING 57908
SWIDTH 1248 0
DWIDTH 13 0
BBX 13 12 -1 -2
BITMAP
0000
0000
0920
07C0
0440
0440
0440
07C0
0920
0000
0000
0000
ENDCHAR
STARTCHAR w_wind
ENCODING 57909
SWIDTH 1248 0
DWIDTH 13 0
BBX 13 12 -1 -2
BITMAP
0000
0000
0180
0F80
0030
0FF0
0000
0FC0
00C0
0000
0000
0000
ENDCHAR
STARTCHAR char57910
ENCODING 57910
SWIDTH 1248 0
DWIDTH 13 0
BBX 13 12 -1 -2
BITMAP
0000
0000
0000
3FE0
2020
2030
2030
2030
2020
3FE0
0000
0000
ENDCHAR
STARTCHAR char57911
ENCODING 57911
SWIDTH 1248 0
DWIDTH 13 0
BBX 13 12 -1 -2
BITMAP
0000
0000
0000
3FE0
2020
2E30
2E30
2E30
2020
3FE0
0000
0000
ENDCHAR
STARTCHAR char57912
ENCODING 57912
SWIDTH 1248 0
DWIDTH 13 0
BBX 13 12 -1 -2
BITMAP
0000
0000
0000
3FE0
2020
2FB0
2FB0
2FB0
2020
3FE0
0000
0000
ENDCHAR
STARTCHAR char57913
ENCODING 57913
SWIDTH 1248 0
DWIDTH 13 0
BBX 13 12 -1 -2
BITMAP
0000
0000
0000
3FE0
3CE0
3830
20F0
3830
3CE0
3FE0
0000
0000
ENDCHAR
STARTCHAR char57914
ENCODING 57914
SWIDTH 1248 0
DWIDTH 13 0
BBX 13 12 -1 -2
BITMAP
0000
0000
0000
3FE0
3DE0
39B0
3070
2CF0
3DE0
3FE0
0000
0000
ENDCHAR
STARTCHAR char57915
ENCODING 57915
SWIDTH 1248 0
DWIDTH 13 0
BBX 13 12 -1 -2
BITMAP
0000
0000
0000
1FF0
1010
3010
3010
3010
1010
1FF0
0000
0000
ENDCHAR
STARTCHAR char57916
ENCODING 57916
SWIDTH 1248 0
DWIDTH 13 0
BBX 13 12 -1 -2
BITMAP
0000
0000
0000
1FF0
1010
31D0
31D0
31D0
1010
1FF0
0000
0000
ENDCHAR
STARTCHAR char57917
ENCODING 57917
SWIDTH 1248 0
DWIDTH 13 0
BBX 13 12 -1 -2
BITMAP
0000
0000
0000
1FF0
1010
37D0
37D0
37D0
1010
1FF0
0000
0000
ENDCHAR
STARTCHAR char57918
ENCODING 57918
SWIDTH 1248 0
DWIDTH 13 0
BBX 13 12 -1 -2
BITMAP
0000
0000
0000
1FF0
1CF0
3070
3C10
3070
1CF0
1FF0
0000
0000
ENDCHAR
STARTCHAR char57919
ENCODING 57919
SWIDTH 1248 0
DWIDTH 13 0
BBX 13 12 -1 -2
BITMAP
0000
0000
0000
1FF0
1EF0
3670
3830
3CD0
1EF0
1FF0
0000
0000
ENDCHAR
STARTCHAR char57920
ENCODING 57920
SWIDTH 1248 0
DWIDTH 13 0
BBX 13 12 -1 -2
BITMAP
0000
0000
0000
0000
0800
0800
7AF8
4AA8
7FA8
0000
0000
0000
ENDCHAR
STARTCHAR char57921
ENCODING 57921
SWIDTH 1248 0
DWIDTH 13 0
BBX 13 12 -1 -2
BITMAP
0000
0000
0800
0800
0800
7AF8
4AA8
4AA8
7FA8
0000
0000
0000
ENDCHAR
STARTCHAR char57922
ENCODING 57922
SWIDTH 1248 0
DWIDTH 13 0
BBX 13 12 -1 -2
BITMAP
0000
0000
0000
7FF0
4018
4008
4008
4008
4018
7FF0
0000
0000
ENDCHAR
STARTCHAR char57923
ENCODING 57923
SWIDTH 1248 0
DWIDTH 13 0
BBX 13 12 -1 -2
BITMAP
0000
0000
0000
7FF0
4018
6008
6008
6008
4018
7FF0
0000
0000
ENDCHAR
STARTCHAR char57924
ENCODING 57924
SWIDTH 1248 0
DWIDTH 13 0
BBX 13 12 -1 -2
BITMAP
0000
0000
0000
7FF0
4018
7008
7008
7008
4018
7FF0
0000
0000
ENDCHAR
STARTCHAR char57925
ENCODING 57925
SWIDTH 1248 0
DWIDTH 13 0
BBX 13 12 -1 -2
BITMAP
0000
0000
0000
7FF0
4018
7808
7808
7808
4018
7FF0
0000
0000
ENDCHAR
STARTCHAR char57926
ENCODING 57926
SWIDTH 1248 0
DWIDTH 13 0
BBX 13 12 -1 -2
BITMAP
0000
0000
0000
7FF0
4018
7C08
7C08
7C08
4018
7FF0
0000
0000
ENDCHAR
STARTCHAR char57927
ENCODING 57927
SWIDTH 1248 0
DWIDTH 13 0
BBX 13 12 -1 -2
BITMAP
0000
0000
0000
7FF0
4018
7E08
7E08
7E08
4018
7FF0
0000
0000
ENDCHAR
STARTCHAR char57928
ENCODING 57928
SWIDTH 1248 0
DWIDTH 13 0
BBX 13 12 -1 -2
BITMAP
0000
0000
0000
7FF0
4018
7F08
7F08
7F08
4018
7FF0
0000
0000
ENDCHAR
STARTCHAR char57929
ENCODING 57929
SWIDTH 1248 0
DWIDTH 13 0
BBX 13 12 -1 -2
BITMAP
0000
0000
0000
7FF0
4018
7F88
7F88
7F88
4018
7FF0
0000
0000
ENDCHAR
STARTCHAR char57930
ENCODING 57930
SWIDTH 1248 0
DWIDTH 13 0
BBX 13 12 -1 -2
BITMAP
0000
0000
0000
7FF0
4018
7FC8
7FC8
7FC8
4018
7FF0
0000
0000
ENDCHAR
STARTCHAR char57931
ENCODING 57931
SWIDTH 1248 0
DWIDTH 13 0
BBX 13 12 -1 -2
BITMAP
0000
0000
0000
7FF0
4018
7FE8
7FE8
7FE8
4018
7FF0
0000
0000
ENDCHAR
STARTCHAR char57932
ENCODING 57932
SWIDTH 1248 0
DWIDTH 13 0
BBX 13 12 -1 -2
BITMAP
0000
0000
0000
7FF0
6018
6008
6008
6008
6018
7FF0
0000
0000
ENDCHAR
STARTCHAR char57933
ENCODING 57933
SWIDTH 1248 0
DWIDTH 13 0
BBX 13 12 -1 -2
BITMAP
0000
0000
0000
7FF0
7018
7008
7008
7008
7018
7FF0
0000
0000
ENDCHAR
STARTCHAR char57934
ENCODING 57934
SWIDTH 1248 0
DWIDTH 13 0
BBX 13 12 -1 -2
BITMAP
0000
0000
0000
7FF0
7818
7808
7808
7808
7818
7FF0
0000
0000
ENDCHAR
STARTCHAR char57935
ENCODING 57935
SWIDTH 1248 0
DWIDTH 13 0
BBX 13 12 -1 -2
BITMAP
0000
0000
0000
7FF0
7C18
7C08
7C08
7C08
7C18
7FF0
0000
0000
ENDCHAR
STARTCHAR char57936
ENCODING 57936
SWIDTH 1248 0
DWIDTH 13 0
BBX 13 12 -1 -2
BITMAP
0000
0000
0000
7FF0
7E18
7E08
7E08
7E08
7E18
7FF0
0000
0000
ENDCHAR
STARTCHAR char57937
ENCODING 57937
SWIDTH 1248 0
DWIDTH 13 0
BBX 13 12 -1 -2
BITMAP
0000
0000
0000
7FF0
7F18
7F08
7F08
7F08
7F18
7FF0
0000
0000
ENDCHAR
STARTCHAR char57938
ENCODING 57938
SWIDTH 1248 0
DWIDTH 13 0
BBX 13 12 -1 -2
BITMAP
0000
0000
0000
7FF0
7F98
7F88
7F88
7F88
7F98
7FF0
0000
0000
ENDCHAR
STARTCHAR char57939
ENCODING 57939
SWIDTH 1248 0
DWIDTH 13 0
BBX 13 12 -1 -2
BITMAP
0000
0000
0000
7FF0
7FD8
7FC8
7FC8
7FC8
7FD8
7FF0
0000
0000
ENDCHAR
STARTCHAR char57940
ENCODING 57940
SWIDTH 1248 0
DWIDTH 13 0
BBX 13 12 -1 -2
BITMAP
0000
0000
0000
7FF0
7FF8
7FE8
7FE8
7FE8
7FF8
7FF0
0000
0000
ENDCHAR
STARTCHAR layout_full
ENCODING 57941
SWIDTH 1248 0
DWIDTH 13 0
BBX 13 12 -1 -2
BITMAP
0000
0000
0000
3FF8
2008
2008
2008
2008
2008
3FF8
0000
0000
ENDCHAR
STARTCHAR layout_mirror
ENCODING 57942
SWIDTH 1248 0
DWIDTH 13 0
BBX 13 12 -1 -2
BITMAP
0000
0000
0000
3FF8
2008
2008
3FF8
2108
2108
3FF8
0000
0000
ENDCHAR
STARTCHAR layout_tall
ENCODING 57943
SWIDTH 1248 0
DWIDTH 13 0
BBX 13 12 -1 -2
BITMAP
0000
0000
0000
3FF8
2108
2108
21F8
2108
2108
3FF8
0000
0000
ENDCHAR
STARTCHAR wifi_1
ENCODING 57944
SWIDTH 1248 0
DWIDTH 13 0
BBX 13 12 -1 -2
BITMAP
0000
0000
0000
0000
0000
0000
0000
0000
0000
2000
0000
0000
ENDCHAR
STARTCHAR wifi_2
ENCODING 57945
SWIDTH 1248 0
DWIDTH 13 0
BBX 13 12 -1 -2
BITMAP
0000
0000
0000
0000
0000
0000
0000
0000
0800
2800
0000
0000
ENDCHAR
STARTCHAR wifi_3
ENCODING 57946
SWIDTH 1248 0
DWIDTH 13 0
BBX 13 12 -1 -2
BITMAP
0000
0000
0000
0000
0000
0000
0000
0200
0A00
2A00
0000
0000
ENDCHAR
STARTCHAR wifi_4
ENCODING 57947
SWIDTH 1248 0
DWIDTH 13 0
BBX 13 12 -1 -2
BITMAP
0000
0000
0000
0000
0000
0000
0080
0280
0A80
2A80
0000
0000
ENDCHAR
STARTCHAR wifi_5
ENCODING 57948
SWIDTH 1248 0
DWIDTH 13 0
BBX 13 12 -1 -2
BITMAP
0000
0000
0000
0000
0000
0020
00A0
02A0
0AA0
2AA0
0000
0000
ENDCHAR
STARTCHAR wifi_alt_1
ENCODING 57949
SWIDTH 1248 0
DWIDTH 13 0
BBX 13 12 -1 -2
BITMAP
0000
0000
0000
0000
0000
0000
0000
0000
0000
2AA0
0000
0000
ENDCHAR
STARTCHAR wifi_alt_2
ENCODING 57950
SWIDTH 1248 0
DWIDTH 13 0
BBX 13 12 -1 -2
BITMAP
0000
0000
0000
0000
0000
0000
0000
0000
0800
2AA0
0000
0000
ENDCHAR
STARTCHAR wifi_alt_3
ENCODING 57951
SWIDTH 1248 0
DWIDTH 13 0
BBX 13 12 -1 -2
BITMAP
0000
0000
0000
0000
0000
0000
0000
0200
0A00
2AA0
0000
0000
ENDCHAR
STARTCHAR wifi_alt_4
ENCODING 57952
SWIDTH 1248 0
DWIDTH 13 0
BBX 13 12 -1 -2
BITMAP
0000
0000
0000
0000
0000
0000
0080
0280
0A80
2AA0
0000
0000
ENDCHAR
STARTCHAR wifi_alt_5
ENCODING 57953
SWIDTH 1248 0
DWIDTH 13 0
BBX 13 12 -1 -2
BITMAP
0000
0000
0000
0000
0000
0020
00A0
02A0
0AA0
2AA0
0000
0000
ENDCHAR
STARTCHAR calendar_large
ENCODING 57954
SWIDTH 1248 0
DWIDTH 13 0
BBX 13 12 -1 -2
BITMAP
0000
1540
7FF8
5548
4008
5558
4008
5558
4008
7FF8
0000
0000
ENDCHAR
STARTCHAR film_small
ENCODING 57955
SWIDTH 1248 0
DWIDTH 13 0
BBX 13 12 -1 -2
BITMAP
0000
0000
0000
3FF0
2850
3870
2FD0
3870
2850
3FF0
0000
0000
ENDCHAR
STARTCHAR folder_small
ENCODING 57956
SWIDTH 1248 0
DWIDTH 13 0
BBX 13 12 -1 -2
BITMAP
0000
0000
0000
0000
1C00
1FE0
1FE0
1FE0
1FE0
1FE0
0000
0000
ENDCHAR
STARTCHAR view_calendar_month
ENCODING 57957
SWIDTH 1248 0
DWIDTH 13 0
BBX 13 12 -1 -2
BITMAP
0000
0000
1FF0
1FF0
1550
1FF0
1550
1FF0
1550
1FF0
0000
0000
ENDCHAR
STARTCHAR calendar_small
ENCODING 57958
SWIDTH 1248 0
DWIDTH 13 0
BBX 13 12 -1 -2
BITMAP
0000
1540
3FF0
3550
2010
2AB0
2010
2AB0
2010
3FF0
0000
0000
ENDCHAR
STARTCHAR char57959
ENCODING 57959
SWIDTH 1248 0
DWIDTH 13 0
BBX 13 12 -1 -2
BITMAP
0000
0000
3FF0
3FF0
2010
2AB0
2010
2AB0
2010
3FF0
0000
0000
ENDCHAR
STARTCHAR editor_large
ENCODING 57960
SWIDTH 1248 0
DWIDTH 13 0
BBX 13 12 -1 -2
BITMAP
0000
0000
1FE0
3FF0
2010
2FD0
2010
2FD0
2010
3FF0
0000
0000
ENDCHAR
STARTCHAR char57961
ENCODING 57961
SWIDTH 1248 0
DWIDTH 13 0
BBX 13 12 -1 -2
BITMAP
0000
0000
3FF0
3FF0
2010
2BD0
2010
2BD0
2010
3FF0
0000
0000
ENDCHAR
STARTCHAR char57962
ENCODING 57962
SWIDTH 1248 0
DWIDTH 13 0
BBX 13 12 -1 -2
BITMAP
0000
0000
0820
17D0
1FF0
1550
1FF0
1550
1FF0
1550
1FF0
0000
ENDCHAR
STARTCHAR layout_deck
ENCODING 57963
SWIDTH 1248 0
DWIDTH 13 0
BBX 13 12 -1 -2
BITMAP
0000
0000
1EE0
1EE0
1EE0
1EE0
1EE0
1EE0
1EE0
1EE0
0000
0000
ENDCHAR
STARTCHAR char57964
ENCODING 57964
SWIDTH 1248 0
DWIDTH 13 0
BBX 13 12 -1 -2
BITMAP
0000
1FF0
1FF0
1110
1110
1110
1110
1110
1110
1FF0
0000
0000
ENDCHAR
STARTCHAR web_invert
ENCODING 57965
SWIDTH 1248 0
DWIDTH 13 0
BBX 13 12 -1 -2
BITMAP
0000
0000
0780
0CC0
1DE0
15E0
14A0
1CA0
0E40
0780
0000
0000
ENDCHAR
STARTCHAR char57966
ENCODING 57966
SWIDTH 1248 0
DWIDTH 13 0
BBX 13 12 -1 -2
BITMAP
0000
0000
0380
0740
04C0
0440
0280
0380
0380
0100
0000
0000
ENDCHAR
STARTCHAR keyboard_layout
ENCODING 57967
SWIDTH 1248 0
DWIDTH 13 0
BBX 13 12 -1 -2
BITMAP
0000
0000
7FF8
5508
4028
7568
4008
57A8
4008
7FF8
0000
0000
ENDCHAR
STARTCHAR Quarter Note
ENCODING 57968
SWIDTH 1248 0
DWIDTH 13 0
BBX 13 12 -1 -2
BITMAP
0000
0000
0400
0400
0400
0400
0400
1C00
1C00
0000
0000
0000
ENDCHAR
STARTCHAR Eighth Note
ENCODING 57969
SWIDTH 1248 0
DWIDTH 13 0
BBX 13 12 -1 -2
BITMAP
0000
0000
0600
0500
0500
0400
0400
1C00
1C00
0000
0000
0000
ENDCHAR
STARTCHAR Beamed Eighth Notes
ENCODING 57970
SWIDTH 1248 0
DWIDTH 13 0
BBX 13 12 -1 -2
BITMAP
0000
0000
0F00
0900
0900
0900
0900
1B00
1B00
0000
0000
0000
ENDCHAR
STARTCHAR Beamed Sixteenth Notes
ENCODING 57971
SWIDTH 1248 0
DWIDTH 13 0
BBX 13 12 -1 -2
BITMAP
0000
0000
0F00
0F00
0900
0F00
0900
1B00
1B00
0000
0000
0000
ENDCHAR
STARTCHAR Music Flat Sign
ENCODING 57972
SWIDTH 1248 0
DWIDTH 13 0
BBX 13 12 -1 -2
BITMAP
0000
0000
1000
1000
1000
1000
1C00
1400
1800
0000
0000
0000
ENDCHAR
STARTCHAR Music Natural Sign
ENCODING 57973
SWIDTH 1248 0
DWIDTH 13 0
BBX 13 12 -1 -2
BITMAP
0000
0000
1000
1200
1600
1A00
1600
1A00
1200
0200
0000
0000
ENDCHAR
STARTCHAR Music Sharp Sign
ENCODING 57974
SWIDTH 1248 0
DWIDTH 13 0
BBX 13 12 -1 -2
BITMAP
0000
0000
0200
0B00
0E00
1A00
0B00
0E00
1A00
0800
0000
0000
ENDCHAR
ENDFONT
